<svg width="61" height="65" viewBox="0 0 61 65" fill="none" xmlns="http://www.w3.org/2000/svg">
<path fill-rule="evenodd" clip-rule="evenodd" d="M27.3542 33.1774H33.7371V61.8743H27.3542V33.1774ZM8.56017 33.1774H25.2266C25.2266 34.2403 25.2266 57.2686 25.2266 60.8115C25.2266 62.2286 25.2266 61.8743 21.6805 61.8743C19.9075 61.8743 18.4891 61.8743 17.0707 61.8743C13.5246 61.8743 11.397 62.2286 9.62398 60.1029C7.85096 57.9772 8.56017 54.4344 8.56017 51.6001C8.56017 49.4744 8.20556 34.2403 8.56017 33.1774ZM35.8647 61.8743C35.5101 54.7887 35.8647 47.3487 35.8647 40.2631C35.8647 38.846 35.5101 34.2403 35.8647 33.1774H52.1765C52.5311 33.886 52.5311 42.7431 52.5311 44.5145C52.5311 48.0573 52.5311 51.9544 52.5311 55.8515C52.5311 57.6229 52.1765 58.6858 51.1127 60.1029C50.4035 61.1657 48.9851 61.8743 46.8575 61.8743C45.439 61.8743 36.5739 61.8743 35.8647 61.8743ZM27.3542 22.1947H33.7371V31.0517H27.3542V22.1947ZM35.8647 22.9033C35.8647 22.549 35.5101 22.1947 36.2193 22.1947H55.7226C58.5594 22.1947 57.8502 25.0289 57.8502 27.8632C57.8502 29.2803 57.8502 31.0517 55.7226 31.0517C49.3397 31.0517 42.2476 31.0517 35.8647 31.0517V22.9033ZM25.2266 31.0517C23.4536 31.406 12.4608 31.0517 9.62398 31.0517C2.8865 31.0517 2.8865 31.7603 2.8865 26.0918C2.8865 22.549 3.2411 22.1947 6.78715 22.1947H18.4891C19.9075 22.1947 21.3259 22.1947 22.3897 22.1947C25.5812 22.1947 25.2266 21.8404 25.2266 23.2575C25.2266 25.7375 25.5812 28.9261 25.2266 31.0517ZM31.6095 20.069C31.6095 16.5262 33.7371 9.79481 35.5101 6.96055C36.5739 5.18914 37.9924 3.41773 40.4746 3.06344C42.6022 2.70916 45.439 4.12629 46.8575 5.18914C53.2403 10.1491 44.0206 20.069 31.6095 20.069ZM29.1272 20.069C23.099 20.069 14.5884 16.8805 12.4608 11.2119C10.3332 5.54342 17.4253 2.70916 20.6167 3.06344C22.7444 3.41773 24.1628 5.18914 25.2266 6.96055C27.3542 9.79481 29.1272 16.8805 29.1272 20.069ZM19.5529 20.069C17.4253 20.4233 8.91477 20.069 5.72333 20.069C2.8865 20.069 1.11347 21.4861 1.11347 24.6747C1.11347 27.8632 0.404264 30.6975 2.53189 32.4689C3.95031 33.1774 4.65952 33.1774 6.43254 33.1774C6.43254 34.2403 6.43254 50.8916 6.43254 53.7258C6.43254 57.2686 6.07794 61.1657 10.6878 63.2914C12.4608 64 14.2338 64 16.7161 64C21.3259 64 25.9358 64 30.5457 64C35.1555 64 39.4108 64 44.0206 64C46.5029 64 48.2759 64 50.4035 63.2914C51.8219 62.5829 53.2403 61.1657 53.9496 59.7486C54.6588 57.9772 54.6588 56.2058 54.6588 53.7258C54.6588 51.6001 54.6588 49.1201 54.6588 46.9944C54.6588 44.8688 54.3042 34.2403 54.6588 33.1774C56.4318 33.1774 57.141 33.1774 58.2048 32.4689C60.3324 30.6975 59.9778 27.8632 59.9778 24.6747C59.9778 21.8404 58.2048 20.069 55.368 20.069C53.2403 20.069 41.893 20.069 41.5384 20.069C44.7298 18.2976 47.9213 16.8805 49.6943 12.9833C52.5311 8.37768 50.0489 4.83486 46.8575 2.70916C40.12 -1.18794 35.1555 2.0006 32.3187 8.0234C31.9641 9.08624 31.6095 10.1491 31.2549 10.8577L30.5457 14.0462C30.5457 14.0462 30.191 14.0462 30.191 13.6919C30.191 13.3376 29.4818 10.8577 28.418 8.37768C27.7088 6.60627 26.645 4.83486 25.5812 3.77201C22.3897 0.583468 18.1345 0.583468 13.8792 2.70916C10.6878 4.83486 8.56017 8.37768 11.0424 12.9833C13.5246 17.9433 19.1983 19.7147 19.5529 20.069Z" fill="#009EC1" stroke="#009EC1" stroke-width="1.5"/>
</svg>
