<svg width="99" height="57" viewBox="0 0 99 57" fill="none" xmlns="http://www.w3.org/2000/svg">
<path fill-rule="evenodd" clip-rule="evenodd" d="M53.9462 50.8239C53.403 48.7449 55.2497 46.9884 57.2773 47.3469C58.4722 47.562 60.6085 49.9278 60.862 50.8598C61.5137 53.3331 58.4722 56.38 55.4307 52.8671C54.9962 52.4011 54.1634 51.6125 53.9462 50.8239ZM61.9483 41.1097C64.4104 40.3211 66.076 42.5794 67.9951 44.5509C71.3987 48.0638 66.8726 52.8313 63.1793 49.3184C62.3465 48.5298 61.5862 47.777 60.7896 46.9526C58.5446 44.6585 59.4137 41.8983 61.9483 41.1097ZM71.5073 37.1667C73.4988 36.6649 75.6713 38.9232 76.6127 40.2136C78.0611 42.1851 76.8662 45.0169 74.5126 45.4829C72.2677 45.9131 70.059 43.5831 69.2262 42.2926C67.7778 40.0344 69.2262 37.7403 71.5073 37.1667ZM78.0611 32.0408C79.1835 31.754 79.9439 32.1842 80.6681 32.7936C81.175 33.2596 82.0078 34.084 82.4061 34.6217C83.7096 36.4498 82.4061 38.6005 80.6681 38.9232C78.6766 39.3175 76.9386 37.2384 76.2869 36.3423C75.0196 34.5858 76.1058 32.471 78.0611 32.0408ZM51.9909 48.0279C50.5063 51.3616 52.8961 53.2256 53.1134 54.05C51.3753 55.3763 49.4925 54.6594 48.5873 53.3689C46.3423 50.1428 50.977 48.709 50.6512 47.0243C50.4339 45.9489 49.2028 46.0206 48.5511 46.63C47.501 47.5978 46.4148 48.7449 45.4009 49.7485C41.5266 53.5123 38.1592 50.2145 38.4489 47.311C38.6299 45.6621 40.3679 44.3 41.1283 43.5472L45.9078 38.7798C46.451 38.2779 47.2476 37.346 46.1975 36.6649C45.3285 36.0197 44.5681 36.9158 44.1336 37.346L39.3179 42.0776C38.5575 42.8303 37.0729 44.5151 36.0953 45.1603C32.6193 47.4544 28.6363 43.2963 31.0261 39.9985C31.6416 39.1382 36.2401 34.7651 37.3626 33.6539C38.0868 32.9728 41.9973 29.5316 41.9611 28.5996C41.9249 27.7035 40.9473 27.2375 40.1869 27.7393C38.5937 28.7072 28.8898 39.425 26.9707 40.1419C23.3861 41.4682 20.2721 37.0592 23.2412 33.9765C24.2189 32.9369 25.4862 31.7899 26.5362 30.7862C32.0761 25.4452 40.1507 15.516 47.6459 13.652C48.8045 13.3652 52.4616 13.0426 53.6203 13.2219C55.2497 15.5518 57.567 20.6419 61.9845 21.072C64.4466 21.323 66.6554 19.8533 67.4882 18.527C68.8279 16.448 66.4381 14.3331 66.2571 12.4332C71.0366 11.9673 72.9919 10.1391 74.1143 9.81652L85.9546 31.0371C85.7011 31.3956 84.5786 32.2917 83.9993 32.6143C83.4562 32.3993 83.1665 31.9691 82.6234 31.4673C78.6766 27.5959 73.6798 30.141 73.354 34.8009C71.2539 34.6575 69.9141 34.8726 68.502 35.948C66.7278 37.346 66.764 38.7439 66.3295 39.5684C65.2794 39.2458 64.8449 38.6364 63.2156 38.5647C61.9845 38.493 60.7896 38.8156 59.8844 39.3892C57.2411 41.0381 57.3498 42.8662 57.0963 44.9452C54.4169 45.1603 52.8961 45.9489 51.9909 48.0279ZM25.0517 10.0316C26.2104 10.3542 27.6587 12.2899 32.1486 11.1787C37.3264 9.88821 39.3179 6.2678 43.3732 4.43968C47.1389 2.79078 55.3583 2.46817 58.9067 4.00953C60.3189 4.6189 60.3913 5.12074 60.9706 6.41119L64.9536 15.6594C65.6053 17.1649 65.7502 17.4516 64.3018 18.3119C61.0068 20.2117 58.1101 16.0178 56.6256 13.6162C54.4531 10.1391 55.9014 10.6768 50.8322 10.9277C47.6459 11.107 46.1251 11.4654 43.6267 12.72C36.7833 16.0537 30.1933 23.9755 24.6896 29.2807C23.4585 30.4636 21.3946 32.3993 20.417 33.7614C19.9101 33.6897 14.2977 30.8221 13.7546 30.4277C13.8632 29.6033 18.5341 21.6456 19.3669 20.1401L25.0517 10.0316ZM75.5627 6.91302C75.5989 6.87718 75.6351 6.84133 75.6713 6.80549C75.7075 6.80549 75.8161 6.69795 75.8524 6.6621L81.9716 3.40015C83.2751 5.44335 84.289 7.5224 85.4838 9.60145L92.4721 22.0399C93.0514 23.0794 95.8033 27.7035 95.8033 28.4204C94.8619 29.0298 89.9737 31.8616 89.2495 31.9333L75.4178 7.09225L75.5627 6.91302ZM3.21789 28.4204C3.2541 27.6676 6.00595 23.0794 6.6215 21.9682C7.74397 19.9608 16.6151 3.93784 17.1582 3.40015C18.0272 3.61523 22.3722 6.30365 23.6758 6.91302C23.5309 7.70163 13.0304 26.198 11.4735 28.9222C10.9665 29.7825 10.2424 31.3239 9.69923 31.9333C9.1561 31.8257 3.97827 28.8864 3.21789 28.4204ZM65.0622 10.1391C62.4914 5.44335 63.5052 2.14556 57.0239 1.14188C52.0633 0.353276 46.0165 0.711732 41.9611 2.61155C37.7609 4.58306 35.9505 8.09593 31.2434 9.06376C29.9398 9.31468 28.7087 9.31468 27.5501 8.777C25.2689 7.66578 26.4638 7.73747 25.8845 6.16027C25.45 5.01321 22.2274 3.50769 20.8153 2.71909C18.9686 1.71541 16.5789 -0.291945 15.0219 2.36063C11.0027 9.1713 6.73012 17.1649 2.71097 24.2623C-0.439179 29.8542 -0.294345 29.1015 6.87496 33.0803C7.67155 33.5105 8.86643 34.4066 10.0251 34.2991C11.3648 34.1199 11.5097 33.2954 12.1976 32.3276C12.8132 32.4351 18.8962 35.6254 19.729 36.1272C19.7652 38.7439 20.5618 40.2136 22.0826 41.3607C24.5448 43.2963 26.5724 42.4002 27.9846 42.2568C28.3105 44.6226 29.0346 45.9489 30.5192 46.9884C33.1624 48.8166 35.0815 47.7412 36.1677 47.8487C36.3488 50.4296 37.5074 51.971 39.2455 52.9388C41.8525 54.4085 43.6991 53.4406 45.6906 52.6162C45.8354 52.7954 45.7268 52.6162 45.9078 52.9746C46.2337 53.6916 46.1975 54.0859 46.9941 55.0537C49.1304 57.5629 52.3168 57.527 54.8514 55.6272C55.7928 55.9498 57.4222 57.4912 60.2827 56.2366C62.1655 55.3763 62.4552 54.4085 63.2156 52.3653C64.1208 52.3653 64.7725 52.903 66.3295 52.7954C70.928 52.4728 71.3263 48.0279 71.5797 47.4544C72.8833 47.6336 73.3902 47.9921 74.9471 47.7053C78.1335 47.096 79.5094 44.6943 79.5094 41.3248C81.6819 41.1814 82.8768 40.7871 83.9993 39.4608C85.4114 37.7403 85.1218 36.9875 85.0855 34.6934C85.8459 34.2632 86.4615 33.4388 87.2581 33.152C89.4306 35.2311 89.9737 34.2991 93.8118 32.1483C96.1654 30.8579 99.2431 29.8542 98.012 27.2733L84.1803 2.61155C82.5147 -0.327791 80.1974 1.64372 77.8438 2.97001C76.7214 3.57938 75.8161 4.08122 74.7661 4.6906C73.354 5.44335 72.9557 5.83766 73.0281 7.73747C71.1814 8.66946 67.633 10.6768 65.0622 10.1391Z" fill="#009EC1"/>
</svg>
