<svg width="75" height="57" viewBox="0 0 75 57" fill="none" xmlns="http://www.w3.org/2000/svg">
<path fill-rule="evenodd" clip-rule="evenodd" d="M56.893 22.8653C56.893 20.1931 58.1788 18.4503 60.8673 18.4503H68.6988C71.1535 18.4503 72.6731 20.0381 72.6731 22.5167V31.8502C72.6731 32.6635 72.751 33.8253 72.2834 34.3288C71.5431 35.1033 70.9197 34.2126 70.9197 33.2831V28.171C70.9197 27.2028 71.2314 24.3757 69.2443 25.189C68.3482 25.5375 68.5819 26.7381 68.5819 27.5901V46.0634C68.5819 48.0772 69.0105 51.0593 67.5299 51.2917C65.5039 51.5628 66.0104 48.1934 66.0104 46.6443C66.0104 44.5917 66.0104 42.5391 66.0104 40.4865C66.0104 38.279 66.4779 35.4132 64.6856 35.6455C63.6336 35.8005 63.6726 36.8074 63.6726 37.8918V47.109C63.6726 47.8836 63.7895 49.5102 63.6726 50.1298C63.5167 50.9044 62.7375 51.6015 61.7634 51.2142C60.4387 50.672 60.8673 47.4963 60.8673 45.9472V27.4739C60.8673 26.5445 61.0231 25.4213 60.088 25.1502C58.997 24.8017 58.5295 25.5763 58.5295 26.5445V32.7797C58.5295 35.4906 56.893 34.8323 56.893 33.2831V22.8653ZM5.69559 18.5278C6.66967 18.3341 15.2026 18.3728 15.9429 18.6439C18.982 19.767 18.4365 23.0202 18.4365 26.5445C18.4365 27.7063 18.6313 33.2057 18.2027 34.0577C17.8521 34.8323 16.9559 34.7548 16.7611 33.9415C16.5663 33.2831 16.6832 29.7201 16.6832 28.7907C16.6832 27.3965 17.1507 24.8017 15.2805 25.1115C13.8778 25.3439 14.3454 27.9387 14.3454 29.3716C14.3454 31.1144 14.3454 32.8184 14.3454 34.5612C14.3454 38.0467 14.3454 41.5322 14.3454 44.979C14.3454 46.1408 14.5012 49.2391 14.3064 50.1685C13.9947 51.7564 11.8518 51.8339 11.7738 49.5876C11.6569 46.257 11.7738 42.694 11.7738 39.286C11.7738 37.9692 12.2024 35.2583 10.3322 35.6843C8.92952 35.9941 9.43604 38.6663 9.43604 40.0218C9.43604 41.5322 9.5919 49.5489 9.35812 50.3622C8.89056 51.7564 6.66967 51.6789 6.6307 49.7038C6.55278 48.0385 6.6307 46.2183 6.6307 44.5143V29.023C6.6307 27.6676 7.13722 24.8791 5.267 25.1115C3.90329 25.2664 4.29292 27.4352 4.29292 29.3716C4.29292 30.3398 4.48774 33.7479 4.05914 34.2901C3.43573 34.9872 2.7344 34.4062 2.65647 33.6317V25.8086C2.65647 22.4006 2.22788 19.2249 5.69559 18.5278ZM32.5022 16.9786C33.8659 16.785 36.7881 16.9399 38.3466 16.9399C39.9441 16.9399 42.7494 16.7075 44.0352 17.211C47.425 18.489 46.8406 22.2456 46.8406 26.1572V33.6317C46.7237 34.9872 45.4379 36.149 44.6976 34.871C44.308 34.1739 44.5028 30.2623 44.5028 29.1392C44.5028 27.6288 45.0483 24.4531 43.1391 24.763C42.126 24.8791 42.165 25.8086 42.165 26.7768C42.204 30.6884 42.2819 52.376 42.0871 53.1506C41.5416 54.9321 39.0869 54.6997 38.9311 52.6859C38.8142 51.0593 38.8921 43.275 38.9311 40.9513C38.9311 39.5183 39.5155 36.1877 37.3336 36.7299C36.4374 37.001 36.5543 37.9305 36.5543 38.9374C36.5543 41.6484 36.8271 52.4535 36.3595 53.4217C35.6192 54.9708 33.3594 54.5448 33.2814 52.4535C33.2035 50.5171 33.2814 48.4645 33.2814 46.5281C33.2814 42.6166 33.2814 38.7051 33.2814 34.7935V25.9248C33.2035 24.9566 32.4242 24.4531 31.5671 24.8404C30.7488 25.2664 30.9436 26.3895 30.9436 27.2416V33.1669C30.9436 33.9415 31.0605 34.9872 30.2813 35.297C29.3851 35.723 28.8786 34.7935 28.8396 33.9802V25.1115C28.8396 22.3618 28.2162 17.6757 32.5022 16.9786ZM17.1507 16.6688C17.8521 15.081 20.8522 15.4295 22.7614 15.4295C24.1251 15.4295 28.411 15.1971 29.3072 15.6619C29.0345 16.1266 27.0473 17.1723 26.4239 19.9607C26.1512 21.2774 26.1512 32.3149 26.2681 34.0964C26.4239 36.6525 27.9045 36.3426 27.9045 37.7756V46.7605C27.9045 47.9611 27.7097 48.9293 26.5798 48.968C25.3719 49.0454 25.0992 47.8449 25.0992 46.8767C25.0992 44.5143 25.0992 42.1518 25.0992 39.7894C25.0992 38.5889 25.0992 37.427 25.0992 36.2265C25.0992 35.1033 25.333 33.7091 24.6316 33.2057C24.1641 32.8958 22.7614 32.5473 22.7614 34.6773V45.3275C22.7614 46.4894 22.9562 47.8449 22.2938 48.5032C21.4367 49.3553 20.5015 48.7743 20.1119 47.8836C19.7612 47.109 19.9561 42.2293 19.9561 40.9513C19.9561 40.2929 19.8392 36.0715 19.995 35.6068C20.1509 35.1808 20.4236 35.0259 20.5795 34.4062C20.8522 33.1669 20.6574 28.9069 20.6574 27.3577C20.6574 23.3688 21.4367 18.6827 17.1507 16.6688ZM48.9446 25.6924C48.9446 22.3231 49.4121 19.767 47.5029 17.211C46.9964 16.5526 46.373 16.2041 45.9054 15.6619C46.6847 15.1971 51.2823 15.4295 52.5292 15.4295C53.9318 15.4295 57.3216 15.0422 58.1009 16.5913C57.8281 16.785 57.5164 16.9399 57.2437 17.1335C54.6721 18.915 54.5552 21.2774 54.5552 24.0271C54.5552 25.8861 54.3215 33.7091 54.789 34.8323C54.9838 35.2583 55.1787 35.297 55.2566 35.7617V45.3275C55.2566 46.1408 55.3735 47.3801 55.1007 48.0385C54.8669 48.6582 54.1267 49.1229 53.3474 48.7743C52.1006 48.2321 52.4512 45.6761 52.4512 44.2819C52.4512 42.7328 52.685 34.0964 52.2175 33.438C51.7889 32.7797 50.62 32.8571 50.2693 33.5155C49.9186 34.1739 50.1524 45.4825 50.1135 47.109C50.0745 49.1229 48.2043 49.5102 47.464 47.8836C47.1523 47.2252 47.2302 38.4727 47.3471 37.1559C49.0225 35.6455 48.9446 35.1421 48.9446 32.1987C48.9446 30.03 48.9446 27.8612 48.9446 25.6924ZM70.4911 36.7687C72.1276 36.7687 73.5692 36.575 74.2316 34.6386C74.6212 33.5155 74.4264 25.0341 74.4264 23.2138C74.4264 21.0451 74.5822 19.8832 73.4523 18.3728C70.647 14.6162 64.5687 16.6301 60.9841 16.1266C60.049 16.0104 59.5036 13.1058 55.3735 13.0671C53.3864 13.0671 51.3992 13.1058 49.4511 13.1058C47.3471 13.0671 45.9834 12.9122 44.308 13.7642C43.256 14.3064 43.6066 14.6162 42.165 14.6162C41.2299 14.5775 40.2558 14.5775 39.3207 14.5775C37.3725 14.5775 35.4244 14.5775 33.4762 14.5775C31.645 14.6162 32.3853 14.5388 31.2553 13.8417C29.1903 12.6411 25.8784 13.1058 23.229 13.1058C18.6313 13.0671 16.6832 12.8735 14.6961 16.0879C12.3193 16.2041 6.78656 15.8168 4.91633 16.2815C2.65647 16.8237 0.747285 18.8376 0.357654 21.3936C0.201802 22.4393 0.318691 29.3716 0.318691 31.0369C0.318691 34.5999 0.162839 36.8848 4.25396 36.7299C4.40981 37.9692 4.29292 46.6443 4.29292 48.6582C4.29292 50.672 4.48774 52.0662 5.96833 53.0344C8.18923 54.5061 9.74775 52.957 10.4101 52.6859C11.579 53.4217 12.9427 54.3512 14.8519 52.957C16.2156 51.9888 16.4494 50.7882 16.4494 48.6582C16.4494 44.7079 16.4494 40.7189 16.4494 36.7687L17.3845 36.8461C17.5404 40.3704 17.1897 44.127 17.4235 47.5738C17.5014 49.1616 18.5924 50.3622 19.6444 50.8269C21.7094 51.7177 22.9952 50.3622 23.7355 50.1298C24.3589 50.5171 24.7096 50.9044 25.6057 51.0206C27.9825 51.3691 29.8137 49.7038 30.0085 47.4576C30.1254 45.9085 30.0085 41.5709 30.0085 39.5571C30.0085 37.4658 29.7748 37.5432 30.515 37.427C30.7488 37.9305 30.593 49.2778 30.593 50.9044C30.593 53.2281 30.7488 54.8546 32.4632 55.939C35.0737 57.5656 36.7881 55.6679 37.4115 55.3968C37.918 55.7067 38.3077 56.2101 39.2038 56.4425C39.6324 56.5587 40.9571 56.6749 41.113 56.4038C42.5546 56.1327 43.6066 54.8546 43.9963 53.6541C44.3469 52.4148 44.1911 42.6166 44.1911 40.2542C44.1521 39.6733 44.0742 38.0079 44.308 37.6207C44.9703 37.6981 44.7755 37.853 44.7755 38.5889V42.5004C44.7755 44.0495 44.6197 46.3345 44.7755 47.8061C45.0483 50.0524 47.2692 51.5628 49.3342 50.9818C50.1135 50.7882 50.4641 50.3235 51.0875 50.1298C51.633 50.4784 52.1785 50.9044 52.9967 51.0206C55.3735 51.3691 57.2827 49.5489 57.3606 47.3414C57.4385 44.7079 57.1658 39.0923 57.4775 36.7299L58.2957 36.6525C58.2957 40.6415 58.2957 44.6692 58.2957 48.6582C58.2957 50.7882 58.6074 51.9888 60.0101 52.9182C60.6724 53.4217 61.4517 53.6153 62.3868 53.4992C63.4778 53.3442 63.7116 52.8408 64.4129 52.5697C65.8156 53.5766 67.2572 54.0026 68.8157 52.9182C70.2184 51.9113 70.4911 50.7107 70.4911 48.6582C70.4522 44.7079 70.4911 40.7189 70.4911 36.7687Z" fill="#008DD2"/>
<path fill-rule="evenodd" clip-rule="evenodd" d="M36.2815 3.54028C40.6843 1.83625 43.4507 8.69113 38.8141 10.3177C34.2944 11.9443 32.0345 5.20559 36.2815 3.54028ZM36.3205 1.17787C33.3982 1.83625 31.0604 4.58594 31.8397 8.14893C32.4242 10.9374 35.3853 13.6096 38.9699 12.7189C41.6974 12.0217 44.2689 9.15586 43.4507 5.70906C42.7883 2.95936 40.0219 0.325849 36.3205 1.17787Z" fill="#008DD2"/>
<path fill-rule="evenodd" clip-rule="evenodd" d="M50.542 3.3466C52.4512 2.80441 54.0097 4.15989 54.3604 5.51538C54.8279 7.41306 53.6201 9.00092 52.1005 9.3882C48.1263 10.3951 46.373 4.46972 50.542 3.3466ZM50.4251 0.984181C42.8663 2.53331 45.3989 13.0674 52.3733 11.7119C55.0227 11.2084 57.3605 8.53618 56.6981 5.36047C56.1916 2.80441 53.659 0.325802 50.4251 0.984181Z" fill="#008DD2"/>
<path fill-rule="evenodd" clip-rule="evenodd" d="M20.8522 7.02572C20.4626 5.05057 21.8263 3.57889 23.2679 3.26907C25.2161 2.88178 26.7746 4.276 27.0084 5.70895C27.7876 9.96907 21.5925 10.8598 20.8522 7.02572ZM23.0341 0.984095C15.5532 2.53323 18.0079 13.0286 24.9823 11.7118C27.6318 11.2084 29.9696 8.57485 29.3462 5.3604C28.8007 2.72687 26.1901 0.325713 23.0341 0.984095Z" fill="#008DD2"/>
<path fill-rule="evenodd" clip-rule="evenodd" d="M63.9063 6.48291C67.9585 5.39852 69.2443 11.3239 65.5817 12.2921C61.6465 13.2991 60.01 7.52856 63.9063 6.48291ZM63.6336 4.27541C56.6203 5.97944 58.8801 16.0487 65.7376 14.732C68.426 14.2285 70.6859 11.595 69.9846 8.34185C69.4781 5.90198 66.8286 3.50084 63.6336 4.27541Z" fill="#008DD2"/>
<path fill-rule="evenodd" clip-rule="evenodd" d="M7.4878 9.96858C7.13713 8.1871 8.50083 6.67672 9.78661 6.44435C11.6568 6.05707 13.2153 7.25763 13.4881 8.76802C14.1115 12.9893 8.15017 13.5315 7.4878 9.96858ZM9.66972 4.23687C6.90335 4.66287 4.60454 7.10272 5.18898 10.3946C5.65654 13.0668 8.26705 15.2743 11.423 14.7708C14.0725 14.3061 16.2934 11.7888 15.7869 8.57438C15.3973 5.94089 12.7478 3.7334 9.66972 4.23687Z" fill="#008DD2"/>
</svg>
