<svg width="75" height="47" viewBox="0 0 75 47" fill="none" xmlns="http://www.w3.org/2000/svg">
<path fill-rule="evenodd" clip-rule="evenodd" d="M37.4017 40.7264C37.2741 40.6023 37.2741 40.6023 37.1465 40.4783C36.3807 38.9896 36.1254 29.5614 37.2741 28.3209C37.7846 29.5614 38.1675 32.9109 38.1675 34.5236C38.1675 36.1363 37.7846 39.2377 37.4017 40.7264ZM39.4439 41.0985C39.4439 38.9896 40.7202 36.1363 41.7412 34.3996C42.507 33.035 44.6768 29.6855 45.5702 29.1893C45.4426 30.926 43.911 34.3996 43.1452 35.7642C42.6347 36.7566 40.3373 40.4783 39.4439 41.0985ZM28.978 29.0652L31.0201 31.5463C32.9346 34.0274 34.8491 37.625 35.1044 40.9745C33.4451 40.2301 28.5951 31.1742 28.978 29.0652ZM44.6768 16.2876C45.6979 19.2649 46.0808 21.9941 46.0808 25.0955C46.0808 25.8398 46.0808 25.8398 45.6979 26.212C44.0386 27.7006 42.7623 29.0652 41.3584 30.926C41.1031 31.4223 40.5926 32.5388 40.082 32.6628C39.9544 30.802 39.6991 29.1893 39.3162 27.4525C38.5504 24.9714 37.9123 25.3436 39.3162 23.1106C40.082 21.746 40.7202 20.6295 41.7412 19.389C42.2518 18.6446 44.1663 16.5357 44.6768 16.2876ZM34.4662 32.7869C34.0833 32.6628 33.5728 31.5463 33.1899 31.0501C32.0412 29.4374 30.6372 27.5766 28.978 26.336C28.2122 25.7157 28.4675 25.0955 28.4675 23.8549C28.4675 22.1182 29.2333 17.5281 29.8714 16.2876C31.1477 16.6598 34.4662 21.4979 35.232 23.1106C36.5083 25.4676 35.8702 24.8474 35.232 27.4525C34.7215 29.3133 34.5938 30.802 34.4662 32.7869ZM41.1031 42.4631C41.3584 41.9669 41.8689 41.5947 42.1241 41.2226C44.9321 37.7491 47.3571 32.9109 47.8676 28.569C48.1229 26.5841 47.6124 26.8322 51.1861 24.8474C52.59 23.979 56.1637 22.3663 57.823 22.1182C57.823 25.8398 54.8874 31.9185 52.2071 35.0198C50.8032 36.5085 49.3992 37.9972 47.3571 39.3618C46.336 39.982 42.3794 42.3391 41.1031 42.4631ZM16.7253 22.1182C18.1292 22.2422 21.9582 24.103 23.2345 24.8474C27.574 27.2044 26.1701 26.4601 27.0635 30.3058C27.8293 33.5312 29.3609 37.0047 31.2754 39.6099C31.6583 40.1061 33.1899 41.9669 33.3175 42.3391C31.9135 42.091 28.4675 40.1061 27.1911 39.2377C23.3622 36.6326 20.4266 33.159 18.7674 29.3133C18.0016 27.7006 16.7253 23.8549 16.7253 22.1182ZM41.9965 44.448C42.1241 44.1999 44.8044 43.0834 45.315 42.8353C46.4637 42.3391 47.6124 41.5947 48.6334 40.9745C50.9308 39.3618 52.59 37.7491 53.994 36.0123C55.5256 34.1515 56.9295 32.0425 57.9506 29.5614C58.844 27.3285 59.2269 26.0879 59.7374 23.7309C60.248 21.4979 58.7164 21.1257 65.7362 20.7536C68.0336 20.6295 69.8204 20.7536 71.9902 20.7536C71.7349 24.103 67.7783 31.2982 65.4809 34.2755C64.3322 35.7642 63.3112 36.7566 62.2901 37.7491C56.9295 43.0834 49.7821 44.6961 41.9965 44.448ZM2.55805 20.7536C4.60017 20.6295 6.64229 20.6295 8.68441 20.7536C9.70547 20.8776 13.6621 21.2498 14.3002 21.6219C14.5555 21.746 14.4279 21.8701 14.5555 22.4903C14.5555 22.8625 14.6831 23.2347 14.8108 23.6068C15.3213 26.0879 15.5766 27.2044 16.5976 29.4374C21.4477 41.2226 32.0412 43.8277 32.4241 44.448C27.574 44.5721 24.7661 44.448 20.6819 42.9593C17.6187 41.8429 14.1726 39.7339 12.3858 37.8731C10.216 35.6401 8.30151 33.5312 6.51466 30.4298C5.23833 28.3209 2.81331 23.1106 2.55805 20.7536ZM46.4637 14.6749C47.8676 13.1862 55.5256 8.59621 57.4401 8.3481C57.9506 9.96081 58.844 18.5206 58.0782 19.8852C57.5677 20.2573 56.1637 20.5055 55.3979 20.7536C54.5045 21.1257 53.7387 21.3738 52.8453 21.746C51.6966 22.2422 48.5058 24.103 48.2505 24.103C47.8676 17.9003 46.5913 15.7914 46.4637 14.6749ZM26.2977 24.2271C26.0424 24.103 22.9793 22.3663 21.7029 21.746C20.8095 21.3738 20.0437 21.1257 19.1503 20.7536C18.5121 20.5055 16.8529 20.1333 16.3424 19.8852C16.2147 18.2725 16.2147 15.4192 16.3424 13.8065C16.3424 12.69 16.7253 9.09242 17.1082 8.3481C18.3845 8.59621 21.9582 10.5811 22.9793 11.0773C24.8937 12.1938 26.6806 13.5584 28.0846 14.6749C28.0846 15.1711 27.7017 16.1635 27.4464 16.7838C26.8082 19.2649 26.4253 21.4979 26.2977 24.2271ZM30.7648 14.0546C31.0201 12.8141 32.9346 9.46459 33.5728 8.3481C34.0833 7.72782 36.253 4.37835 36.8912 3.75807C37.1465 3.38591 37.0188 3.63402 37.2741 3.50996C38.6781 4.5024 43.4005 12.0697 43.911 14.0546C43.4005 14.5508 42.6347 15.2952 42.1241 15.7914C38.9333 19.0168 38.5504 20.6295 37.2741 22.2422C36.7636 21.8701 36.253 20.6295 35.8702 20.0092C34.7215 18.3965 33.9557 17.4041 32.5517 15.9154C32.0412 15.4192 31.1477 14.5508 30.7648 14.0546ZM28.978 12.566L24.128 9.34053C22.3411 8.22404 20.8095 7.60377 18.7674 6.73538C15.7042 5.37078 15.4489 5.49484 14.8108 8.96837C14.045 13.8065 14.1726 14.923 14.3002 19.389L9.96074 18.8927C8.30151 18.7687 6.76992 18.6446 5.1107 18.6446C-0.377501 18.6446 -0.377501 18.7687 1.02646 23.1106C4.21727 32.6628 9.83311 40.7264 19.5332 44.6961C21.9582 45.6885 24.7661 46.1848 27.7017 46.5569C32.807 46.9291 34.8491 45.9367 37.2741 45.9367C38.6781 45.9367 41.9965 46.9291 46.8466 46.5569C55.2703 45.6885 61.6519 42.4631 66.6296 36.2604C68.0336 34.3996 69.4375 32.4147 70.5862 30.3058C71.8625 28.0728 72.6283 25.8398 73.5218 23.2347C75.181 18.7687 74.9257 18.6446 69.948 18.6446C68.1612 18.6446 66.6296 18.7687 64.9704 18.7687C63.3112 18.8927 61.9072 19.2649 60.3756 19.389C60.248 14.3027 60.7585 12.8141 59.4822 7.47971C58.9716 5.74295 58.844 5.61889 56.9295 6.23917C51.1861 8.3481 45.9531 12.4419 45.5702 12.566C44.5492 10.2089 43.5281 8.3481 42.1241 6.11511C41.486 5.12267 38.4228 0.780762 37.2741 0.780762C36.5083 0.780762 35.3596 2.51753 34.7215 3.1378C32.2964 6.11511 30.6372 8.96837 28.978 12.566Z" fill="#008DD2"/>
</svg>
