<svg width="58" height="57" viewBox="0 0 58 57" fill="none" xmlns="http://www.w3.org/2000/svg">
<path fill-rule="evenodd" clip-rule="evenodd" d="M8.06322 43.1157C8.71009 43.1157 11.9444 44.378 13.2381 44.378C15.1787 45.0091 16.4724 41.8535 13.2381 41.2224C11.9444 40.5913 10.0038 40.5913 8.71009 39.9602C7.41636 39.9602 6.7695 39.9602 6.12263 39.3291C3.53518 38.698 3.53518 39.3291 2.88832 41.8535L0.947727 48.7958C0.300864 50.6891 3.53518 51.9513 4.18204 49.4269C4.18204 48.1646 4.82891 45.0091 5.47577 44.378C11.2975 53.2135 21.0005 56.3691 28.116 57.0002C42.9938 57.0002 55.2842 46.2713 57.2248 32.3868C57.8717 31.1246 57.8717 27.3379 57.2248 26.0757C57.2248 24.8135 55.9311 24.1824 54.6374 25.4446C53.9905 26.0757 54.6374 27.3379 54.6374 27.9691C54.6374 43.7469 40.4064 56.3691 22.9411 53.2135C21.0005 52.5824 17.7662 51.3202 15.1787 49.4269C13.2381 48.7958 10.0038 45.6402 8.06322 43.1157Z" fill="#009EC1"/>
<path fill-rule="evenodd" clip-rule="evenodd" d="M49.4624 14.0847C48.8155 14.0847 46.2281 13.4536 44.9344 12.8225C42.9938 12.8225 41.7 15.3469 44.2875 15.978C46.2281 16.6091 47.5218 17.2403 49.4624 17.2403C50.1093 17.8714 50.7561 17.8714 51.403 17.8714C52.0499 18.5025 53.3436 18.5025 53.9904 17.8714C55.2842 17.8714 55.931 14.7158 55.931 13.4536C56.5779 12.1914 56.5779 10.298 57.2248 9.03581C57.8716 6.51136 54.6373 5.88025 53.9904 8.40469C53.9904 9.03581 52.6967 12.1914 52.6967 12.8225C45.5812 2.72469 31.9971 -1.6931 21.0004 2.09358C6.76941 6.51136 0.300781 18.5025 0.300781 29.8625C0.300781 31.1247 0.300781 33.0181 2.24137 33.0181C4.82882 32.3869 2.24137 28.6003 4.82882 21.0269C6.76941 15.3469 10.0037 10.9291 16.4724 7.14247C22.941 3.3558 30.0565 3.3558 35.2314 4.61802C39.7594 5.88025 46.8749 9.66692 49.4624 14.0847Z" fill="#009EC1"/>
<path d="M28.116 23.5516C28.116 24.1827 28.116 24.8138 27.4692 25.4449C27.4692 26.076 26.8223 26.7071 26.8223 27.3383C26.1754 27.3383 25.5286 27.9694 24.8817 27.9694C24.2349 28.6005 23.588 28.6005 22.9411 28.6005C22.2943 28.6005 21.6474 28.6005 21.0005 27.9694C20.3537 27.9694 20.3537 27.3383 19.7068 27.3383C19.0599 26.7071 19.0599 26.076 18.4131 25.4449C18.4131 24.8138 18.4131 24.1827 18.4131 23.5516C18.4131 22.9205 18.4131 22.2894 18.4131 21.6582C19.0599 21.0271 19.0599 20.396 19.7068 19.7649C20.3537 19.7649 20.3537 19.1338 21.0005 19.1338C21.6474 19.1338 22.2943 18.5027 22.9411 18.5027C23.588 18.5027 24.2349 19.1338 24.8817 19.1338C25.5286 19.1338 26.1754 19.7649 26.8223 19.7649C26.8223 20.396 27.4692 21.0271 27.4692 21.6582C28.116 22.2894 28.116 22.9205 28.116 23.5516ZM24.8817 23.5516C24.8817 22.9205 24.8817 22.9205 24.8817 22.2894C24.2349 22.2894 24.2349 22.2894 24.2349 21.6582C24.2349 21.6582 24.2349 21.6582 23.588 21.6582C23.588 21.6582 23.588 21.0271 22.9411 21.0271C22.9411 21.0271 22.9411 21.6582 22.2943 21.6582C22.2943 22.2894 21.6474 22.2894 21.6474 22.2894C21.6474 22.9205 21.6474 22.9205 21.6474 23.5516C21.6474 24.1827 21.6474 24.1827 21.6474 24.8138L22.2943 25.4449C22.2943 25.4449 22.2943 25.4449 22.2943 26.076C22.9411 26.076 22.9411 26.076 22.9411 26.076C23.588 26.076 23.588 26.076 23.588 26.076C24.2349 25.4449 24.2349 25.4449 24.2349 25.4449C24.2349 25.4449 24.2349 24.8138 24.8817 24.8138C24.8817 24.1827 24.8817 24.1827 24.8817 23.5516ZM34.5847 19.7649C34.5847 19.1338 34.5847 19.1338 34.5847 19.1338C35.2315 19.1338 35.2315 19.1338 35.8784 19.1338H39.1127L23.588 38.0672C23.588 38.0672 23.588 38.0672 22.9411 38.6983C22.9411 38.6983 22.9411 38.6983 22.2943 38.6983H19.0599L34.5847 19.7649ZM39.7596 34.2805C39.7596 34.9116 39.7596 35.5427 39.1127 36.1738C39.1127 36.8049 38.4659 36.8049 38.4659 37.436C37.819 38.0672 37.1721 38.0672 36.5253 38.6983C35.8784 38.6983 35.2315 38.6983 34.5847 38.6983C33.9378 38.6983 33.2909 38.6983 32.6441 38.6983C31.9972 38.0672 31.9972 38.0672 31.3504 37.436C30.7035 36.8049 30.7035 36.8049 30.0566 36.1738C30.0566 35.5427 30.0566 34.9116 30.0566 34.2805C30.0566 33.0183 30.0566 32.3871 30.0566 31.756C30.7035 31.1249 30.7035 30.4938 31.3504 30.4938C31.9972 29.8627 31.9972 29.8627 32.6441 29.2316C33.2909 29.2316 33.9378 29.2316 34.5847 29.2316C35.2315 29.2316 35.8784 29.2316 36.5253 29.2316C37.1721 29.8627 37.819 29.8627 38.4659 30.4938C38.4659 30.4938 39.1127 31.1249 39.1127 31.756C39.7596 32.3871 39.7596 33.0183 39.7596 34.2805ZM36.5253 34.2805C36.5253 33.6494 36.5253 33.0183 36.5253 33.0183C35.8784 32.3871 35.8784 32.3871 35.8784 32.3871C35.8784 31.756 35.8784 31.756 35.2315 31.756C35.2315 31.756 35.2315 31.756 34.5847 31.756C34.5847 31.756 34.5847 31.756 33.9378 31.756C33.9378 31.756 33.9378 31.756 33.9378 32.3871C33.2909 32.3871 33.2909 32.3871 33.2909 33.0183C33.2909 33.0183 33.2909 33.6494 33.2909 34.2805V34.9116C33.2909 35.5427 33.2909 35.5427 33.9378 35.5427C33.9378 36.1738 33.9378 36.1738 33.9378 36.1738C34.5847 36.1738 34.5847 36.1738 34.5847 36.1738C35.2315 36.1738 35.2315 36.1738 35.2315 36.1738C35.8784 36.1738 35.8784 36.1738 35.8784 35.5427C35.8784 35.5427 35.8784 35.5427 36.5253 34.9116V34.2805Z" fill="#009EC1"/>
</svg>
