<svg xmlns="http://www.w3.org/2000/svg" width="64.007" height="50.674" viewBox="0 0 64.007 50.674">
  <g id="Сгруппировать_137" data-name="Сгруппировать 137" transform="translate(-270.389 -842.138)">
    <g id="Сгруппировать_103" data-name="Сгруппировать 103">
      <path id="Контур_416" data-name="Контур 416" d="M285.953,884.841v-8.66H271.389v-4.039L284.521,851.7h7.158v19.788h4.147v2.759m-9.873-2.759v-8.935c0-1.868.1-3.735.2-5.7h-.2c-.988,2.07-1.827,3.735-2.815,5.553l-5.924,8.985v.1Z" fill="none" stroke="#010742" stroke-miterlimit="10" stroke-width="2"/>
    </g>
    <path id="Контур_418" data-name="Контур 418" d="M284.3,851.9a24.333,24.333,0,1,1,1.46,32.754" fill="none" stroke="#010742" stroke-miterlimit="10" stroke-width="2"/>
    <g id="Сгруппировать_132" data-name="Сгруппировать 132">
      <path id="Контур_440" data-name="Контур 440" d="M311.4,875.8l-13.942-13.176a1.019,1.019,0,0,1-.041-1.44l2.166-2.292a1.019,1.019,0,0,1,1.44-.041l10.215,9.654a1.018,1.018,0,0,0,1.431-.032l17.711-18.3a1.018,1.018,0,0,1,1.44-.023l2.266,2.193a1.019,1.019,0,0,1,.023,1.44l-21.277,21.98A1.019,1.019,0,0,1,311.4,875.8Z" fill="#5f616b"/>
    </g>
  </g>
</svg>
