<svg width="60" height="59" viewBox="0 0 60 59" fill="none" xmlns="http://www.w3.org/2000/svg">
<path fill-rule="evenodd" clip-rule="evenodd" d="M31.5958 3.85663C32.5135 3.62842 35.496 4.08484 36.4137 4.31305C38.0196 4.76946 39.3962 5.22588 40.5433 5.91051C47.8848 9.10543 53.391 16.4081 54.7675 24.8518C55.9146 31.4699 54.5381 38.0879 51.785 43.1085C45.3612 53.8343 32.284 57.2574 20.8129 53.6061C9.11229 49.9548 2.68843 38.3161 4.2944 26.4493C4.52382 23.0261 5.21209 20.5159 6.58863 17.7774C8.42402 13.8978 10.9477 11.8439 11.1771 11.3875C10.9477 10.9311 9.11229 8.87722 8.65344 8.87722C7.96517 9.33364 6.35921 11.3875 5.67094 12.3003C4.75324 13.6696 3.83555 15.0388 3.14728 16.4081C-1.90003 26.6775 -0.523494 37.8597 5.67094 46.5316C8.88286 51.324 14.1596 55.4318 20.8129 57.4856C28.1544 59.7677 36.1842 59.0831 42.6081 55.8882C55.2264 49.7266 62.1091 35.3494 58.2089 21.6569C57.0618 18.462 55.6852 15.2671 53.8498 12.7568C47.426 4.08484 38.9373 -0.0229154 27.6956 0.205293V13.8978H31.5958V3.85663Z" fill="#008DD2"/>
<path fill-rule="evenodd" clip-rule="evenodd" d="M15.995 17.0919C15.995 17.5484 18.9775 21.1997 19.207 21.6561L26.0897 30.5562C27.6956 32.1537 30.2193 31.6973 31.137 29.8716C32.5135 27.3613 30.2193 25.7639 29.0722 24.851L17.8304 16.1791C17.3716 15.9509 17.1422 15.4945 16.4539 15.9509C15.995 16.1791 15.7656 16.6355 15.995 17.0919Z" fill="#008DD2"/>
</svg>
