<svg xmlns="http://www.w3.org/2000/svg" width="61.531" height="49.19" viewBox="0 0 61.531 49.19">
  <g id="Сгруппировать_136" data-name="Сгруппировать 136" transform="translate(-272.864 -769.689)">
    <g id="Сгруппировать_128" data-name="Сгруппировать 128">
      <g id="Сгруппировать_127" data-name="Сгруппировать 127">
        <path id="Контур_436" data-name="Контур 436" d="M288.155,809.892a16.508,16.508,0,0,1-5.411.838,16.7,16.7,0,0,1-8.713-2.2l1.341-4.552a15.141,15.141,0,0,0,7.085,1.958c4.5,0,6.271-2.594,6.271-5.09,0-3.77-3.495-5.385-7.085-5.385h-2.681v-4.4h2.681c2.681,0,6.128-1.273,6.128-4.405,0-2.2-1.532-4.014-4.979-4.014a12.336,12.336,0,0,0-6.367,2.007l-1.34-4.356a17.1,17.1,0,0,1,8.952-2.448c6.462,0,9.718,3.622,9.718,7.783,0,3.328-1.915,6.069-5.745,7.44m.145,16.831" fill="none" stroke="#010742" stroke-miterlimit="10" stroke-width="2"/>
      </g>
      <path id="Контур_437" data-name="Контур 437" d="M287.867,778.343a23.594,23.594,0,1,1-.083,31.792" fill="none" stroke="#010742" stroke-miterlimit="10" stroke-width="2"/>
    </g>
    <g id="Сгруппировать_131" data-name="Сгруппировать 131">
      <path id="Контур_439" data-name="Контур 439" d="M311.4,802.854l-13.942-13.176a1.019,1.019,0,0,1-.041-1.44l2.166-2.291a1.018,1.018,0,0,1,1.44-.041l10.215,9.653a1.018,1.018,0,0,0,1.431-.032l17.711-18.295a1.019,1.019,0,0,1,1.44-.023l2.266,2.193a1.02,1.02,0,0,1,.023,1.441l-21.277,21.979A1.019,1.019,0,0,1,311.4,802.854Z" fill="#5f616b"/>
    </g>
  </g>
</svg>
