<svg width="61" height="66" viewBox="0 0 61 66" fill="none" xmlns="http://www.w3.org/2000/svg">
<path fill-rule="evenodd" clip-rule="evenodd" d="M6.93875 15.1167C7.76406 15.1167 9.90984 15.7787 10.9002 15.9442C15.852 16.9373 13.5412 17.1028 17.5026 14.2892C20.8038 11.9721 23.1147 11.6411 23.94 11.1446C24.6002 10.8136 25.9207 5.3519 26.4159 4.02786C26.5809 3.53135 26.746 3.53135 28.2316 3.53135C29.0569 3.36584 29.7171 3.36584 30.5424 3.36584C31.3677 3.36584 32.0279 3.36584 32.8532 3.53135C34.1737 3.53135 34.3388 3.36584 34.5038 4.19337C34.834 5.3519 35.3291 6.51044 35.6593 7.83448C35.9894 8.82751 36.3195 10.8136 37.1448 11.1446C37.4749 11.4756 38.3002 11.6411 38.7954 11.8066C40.6111 12.6341 41.9316 13.2961 43.5822 14.2892C44.4075 14.9512 46.0581 16.4407 46.2231 16.4407C47.0484 16.9373 53.3207 14.9512 53.981 15.1167C54.8063 15.7787 57.6123 20.5784 57.9424 21.7369L53.8159 26.371C52.6605 27.5296 52.6605 27.3641 52.9906 29.3501C53.1557 30.5087 53.3207 31.8327 53.3207 33.1567C53.3207 34.4808 53.1557 35.9703 52.9906 37.1289C52.6605 39.2804 52.6605 38.7839 53.8159 40.1079L56.787 43.418C57.2822 43.7491 57.6123 44.0801 57.9424 44.5766C57.6123 45.9006 54.8063 50.7003 53.981 51.3623C52.9906 51.1968 51.5051 50.7003 50.3497 50.5348C45.5629 49.3762 47.0484 49.2107 44.4075 51.3623C43.4171 52.0243 42.7569 52.6863 41.7665 53.1828C40.9412 53.6793 39.9508 54.1759 38.7954 54.5069C36.9798 55.3344 36.8147 54.8379 36.3195 56.3274C36.1545 56.9894 34.5038 62.4511 34.3388 62.6166C33.6785 63.1131 27.5713 62.9476 26.5809 62.7821C26.2508 62.2856 24.7653 57.155 24.6002 56.3274C24.2701 55.4999 24.2701 55.3344 23.4448 55.0034C20.9689 54.1759 18.658 53.0173 16.5123 51.3623C15.3568 50.5348 14.8617 49.7072 13.8713 49.7072C12.2207 50.0382 7.92912 51.1968 6.93875 51.3623C6.11345 50.5348 3.30742 45.9006 2.9773 44.5766C3.47248 43.9146 4.46285 42.9215 5.12309 42.2595C8.09418 38.7839 8.25924 39.6114 7.92912 37.1289C7.599 35.8048 7.599 34.4808 7.599 33.1567C7.599 31.8327 7.599 30.3432 7.92912 29.1846C8.25924 27.1986 8.09418 27.5296 7.10381 26.2055C6.60863 25.709 2.9773 21.9024 2.9773 21.7369C3.30742 20.4129 5.94839 15.9442 6.93875 15.1167ZM27.7364 1.54529C24.6002 1.8763 25.4255 0.883271 23.7749 6.17943C22.2894 10.6481 23.4448 8.82751 19.4833 10.8136C17.6677 11.6411 15.852 12.7996 14.2014 14.2892C13.7062 14.7857 13.2111 14.4547 12.7159 14.2892L7.26887 13.1306C5.78333 12.7996 5.78333 13.1306 4.62791 14.6202C3.47248 16.4407 2.48212 18.0958 1.49176 20.0818C0.831517 21.7369 0.501396 21.9024 1.49176 23.2264C2.81224 24.716 4.46285 26.371 5.78333 27.6951C6.27851 28.3571 5.94839 28.5226 5.78333 29.3501C5.78333 30.0121 5.78333 30.6742 5.61827 31.3362C5.45321 33.3222 5.61827 35.4738 5.94839 37.4599C6.11345 38.4529 5.94839 38.2874 5.45321 38.9494L1.3267 43.418C0.831517 43.9146 0.666457 44.2456 0.996578 45.0731C1.98694 47.5557 3.30742 49.8727 4.95803 52.0243C5.94839 53.5138 5.78333 53.5138 7.76406 53.1828L13.046 52.0243C14.0364 51.8588 14.0364 51.8588 14.6966 52.5208C16.5123 54.0104 19.3183 55.6654 21.6291 56.4929C22.4544 56.8239 22.6195 56.6584 22.7846 57.486C23.1147 58.6445 23.4448 59.6375 23.94 60.7961C24.105 61.4581 24.7653 63.7752 24.9303 64.1062C25.7556 65.4302 32.8532 64.9337 34.834 64.6027C35.6593 64.6027 35.8243 64.4372 36.1545 63.7752L38.1352 57.155C38.3002 56.6584 40.281 56.1619 41.2713 55.6654C43.087 54.8379 45.0677 53.5138 46.5533 52.1898C47.0484 51.6933 47.2135 51.8588 48.0388 52.0243L53.4858 53.1828C55.3015 53.6793 55.1364 53.1828 56.1268 51.8588C57.4473 50.0382 59.2629 46.8936 59.9232 44.9076C60.2533 44.0801 59.9232 43.7491 59.428 43.2525C57.7774 41.5975 56.787 40.2734 55.3015 38.7839C54.6412 38.1219 54.8063 37.9564 54.9713 36.9633C55.4665 34.1498 55.4665 31.6672 54.9713 28.8536C54.8063 27.8606 54.9713 27.8606 55.4665 27.3641L59.7581 22.7299C60.4183 21.9024 59.593 20.5784 59.0979 19.5853C58.2726 17.7648 57.1171 15.7787 55.7966 14.1237C54.6412 12.6341 54.9713 12.7996 52.9906 13.2961L47.5436 14.4547C46.7183 14.6202 46.7183 14.2892 46.0581 13.7927C44.0774 12.1376 41.4364 10.6481 39.1255 9.82054C38.1352 9.48953 38.3002 9.65503 37.9701 8.662C37.8051 7.66897 36.1545 2.37282 35.8243 2.04181C34.999 1.21428 29.2219 1.37979 27.7364 1.54529Z" fill="#008DD2" stroke="#008DD2" stroke-width="1.5"/>
<path fill-rule="evenodd" clip-rule="evenodd" d="M29.387 16.2746C37.9701 15.4471 46.7183 22.5638 47.2135 32.1632C48.0388 47.5552 30.0472 55.665 18.9882 45.5692C12.2207 39.2799 11.7255 28.522 17.9978 21.7363C20.8038 18.7572 24.105 16.9366 29.387 16.2746ZM11.5604 34.1493C12.2207 44.7416 21.134 52.5204 31.3677 52.0239C41.7665 51.5274 49.6894 42.7556 49.1943 32.3287C48.8641 21.9018 40.1159 13.9575 29.387 14.2885C19.6484 14.6196 11.0653 23.5569 11.5604 34.1493Z" fill="#008DD2" stroke="#008DD2" stroke-width="1.5"/>
<path fill-rule="evenodd" clip-rule="evenodd" d="M24.9303 25.0475C25.5905 25.213 31.2026 28.5231 32.1929 29.0196C33.5134 29.8471 34.5038 30.3436 35.8243 31.1712C36.4845 31.5022 38.7954 32.8262 39.2905 33.1572C38.9604 33.6537 36.3194 34.9778 35.6592 35.3088C34.5038 35.9708 33.3484 36.6328 32.1929 37.2948C31.6978 37.6258 25.4254 41.2669 24.9303 41.4324V25.0475ZM22.9495 23.3925V42.922C22.9495 45.4045 25.7556 43.253 27.7363 42.2599C29.2218 41.2669 31.0375 40.2739 32.6881 39.2809C34.5038 38.2878 35.9893 37.2948 37.6399 36.4673L41.4363 34.3157C43.5821 32.9917 41.6014 32.1642 40.2809 31.3367C36.1544 29.1851 31.6978 26.537 27.7363 24.22C25.7556 23.0614 22.9495 20.9099 22.9495 23.3925Z" fill="#008DD2" stroke="#008DD2" stroke-width="1.5"/>
</svg>
