<svg width="75" height="61" viewBox="0 0 75 61" fill="none" xmlns="http://www.w3.org/2000/svg">
<path fill-rule="evenodd" clip-rule="evenodd" d="M33.2964 49.2563H28.2802C28.2802 51.6345 28.6385 54.0127 27.9218 56.3909C27.5635 57.0704 26.8469 57.7499 26.8469 58.0896C27.5635 58.4294 29.3551 58.7691 30.43 58.4294C32.9381 57.4101 34.013 55.7114 33.6547 52.9935C33.6547 51.9742 33.6547 50.6152 33.2964 49.2563ZM25.772 54.3524C26.1303 53.3332 26.1303 44.4998 26.1303 42.8011C25.772 38.7242 22.189 37.0254 19.3225 38.0447C15.7395 39.4037 16.0978 42.4614 16.0978 46.5383C16.0978 47.5575 16.0978 48.5768 16.0978 49.2563C16.0978 52.314 15.7395 51.6345 9.28998 51.6345C1.76557 51.6345 2.84049 50.6152 2.84049 57.0704C2.84049 57.7499 3.19879 58.7691 4.27371 58.4294C4.99032 58.4294 5.34862 57.4101 5.70693 57.0704C7.14015 55.0319 6.78184 54.6922 9.28998 55.3717C12.5147 56.3909 15.7395 57.4101 18.9642 58.0896C22.5473 59.1089 25.4137 57.4101 25.772 54.3524ZM64.1107 58.4294H70.9185C71.2768 55.7114 68.4103 55.3717 67.6937 54.3524C66.2605 52.6537 65.5439 51.6345 64.469 49.9357C63.7524 49.2563 61.2442 46.5383 61.2442 45.8588C61.2442 43.4806 61.2442 40.7626 61.2442 38.3844C60.5276 38.3844 58.3778 38.7242 58.3778 38.7242C58.0195 39.0639 56.9446 40.7626 56.9446 41.1024C56.228 42.1216 55.5113 43.1408 54.4364 43.8203C54.0781 44.1601 54.0781 44.1601 54.0781 45.1793C54.0781 47.2178 53.7198 46.5383 55.8696 48.9165L64.1107 58.4294ZM55.5113 38.7242C55.153 38.7242 52.2866 38.3844 49.7785 37.0254C45.8371 35.3267 42.6124 31.9293 41.1791 27.8523C40.8208 27.1728 40.8208 25.8138 40.4625 25.1344C39.7459 24.7946 34.3713 25.1344 33.2964 25.1344V46.878H36.8795V40.0831H39.3876C39.7459 41.7819 38.671 47.2178 39.7459 48.237L47.2703 57.4101C48.7035 58.7691 47.9869 58.4294 50.4951 58.4294C52.2866 58.4294 53.7198 58.4294 55.153 58.4294C55.153 57.4101 54.7947 56.7306 54.0781 56.0512C53.3615 55.3717 52.6449 55.0319 51.9283 54.3524L45.8371 46.5383C45.1205 45.8588 45.4788 44.4998 45.4788 43.4806C45.4788 42.8011 45.4788 40.7626 45.4788 40.0831H47.6286L47.9869 45.5191C49.0619 45.1793 51.57 43.4806 52.2866 42.8011C54.0781 41.1024 54.4364 40.4229 55.5113 38.7242ZM30.7883 25.1344C25.772 24.7946 22.9056 25.1344 19.6808 27.8523C17.531 29.8908 16.0978 32.9485 16.0978 37.0254C16.8144 37.0254 18.2476 35.6665 20.7557 35.3267C22.9056 35.3267 24.3388 36.0062 25.772 37.0254C28.9968 39.7434 28.2802 43.1408 28.2802 46.878H30.7883V25.1344ZM43.329 25.8138C43.6873 29.551 46.5537 32.6087 49.4202 34.3075C55.8696 38.3844 65.1856 36.3459 69.4852 29.8908C71.9934 26.1536 71.9934 23.4356 71.9934 18.3395C71.9934 15.9612 71.9934 14.2625 70.9185 12.224C69.1269 7.46761 64.8273 3.73042 58.7361 3.05093C50.4951 2.03169 42.9707 8.82659 42.6124 15.9612C43.6873 15.9612 44.0456 15.6215 45.1205 15.6215V17.9997C43.6873 17.9997 43.329 17.9997 42.6124 18.6792C41.1791 20.0382 41.1791 22.0767 42.6124 23.0959C43.6873 23.7754 44.0456 23.4356 45.1205 23.7754V26.1536L43.329 25.8138ZM63.7524 37.7049C63.3941 38.7242 63.7524 40.4229 63.7524 41.7819C63.7524 46.1986 63.0358 44.4998 65.9022 48.237L69.8436 52.9935C70.2019 53.3332 70.9185 53.3332 71.9934 54.6922C72.71 55.7114 73.4266 56.7306 73.4266 57.7499C73.4266 59.4486 73.7849 60.8076 71.9934 60.8076C70.9185 60.8076 63.7524 60.8076 63.0358 60.8076C62.6774 60.4678 53.7198 49.9357 51.9283 47.8973C51.57 47.5575 51.57 47.2178 51.57 46.5383L49.4202 47.5575L53.7198 52.9935C54.7947 53.6729 57.6612 54.3524 57.6612 59.1089C57.6612 61.4871 56.228 60.8076 52.6449 60.8076C51.2117 60.8076 50.1368 60.8076 49.0619 60.8076C47.2703 60.8076 47.2703 60.8076 46.5537 59.7884C45.4788 58.7691 37.9544 49.2563 37.2378 49.2563H35.8046C35.8046 51.6345 37.2378 54.3524 35.4463 57.4101C34.3713 59.4486 31.8632 60.8076 29.3551 60.8076C27.5635 60.8076 26.4886 60.4678 25.0554 60.1281C23.2639 59.7884 23.2639 61.8268 17.1727 60.1281C16.4561 59.7884 14.3063 59.1089 13.2313 59.1089C13.2313 59.1089 12.873 59.7884 12.1564 60.1281C11.7981 60.4678 11.0815 60.8076 10.3649 60.8076C8.21506 60.8076 7.49845 59.7884 7.14015 59.4486C6.06523 60.1281 5.70693 60.8076 4.27371 60.8076C3.19879 60.8076 2.12388 60.4678 1.40727 59.7884C0.33235 58.7691 0.33235 57.7499 0.33235 56.3909C0.33235 54.0127 -0.0259552 51.2947 1.76557 49.9357C2.84049 49.2563 3.9154 49.2563 5.34862 49.2563C6.78184 49.2563 12.873 49.2563 13.9479 49.2563C13.9479 45.1793 13.9479 40.7626 13.9479 36.6857C13.9479 32.269 14.6646 29.551 17.1727 27.1728C18.9642 25.1344 22.189 23.0959 26.1303 22.7561C28.9968 22.4164 35.8046 22.7561 39.3876 22.7561C39.0293 21.3972 38.671 20.3779 39.3876 18.6792C39.7459 18.3395 40.1042 17.9997 40.1042 17.66C40.4625 17.3202 40.4625 15.2817 40.4625 14.6023C41.8957 3.05093 56.5863 -3.40423 66.9771 3.39067C69.4852 5.0894 71.6351 7.46761 73.0683 10.5253C74.5015 14.2625 74.5015 17.66 74.5015 22.0767C74.1432 28.1921 71.2768 33.628 65.9022 36.3459C65.1856 37.0254 64.469 37.3652 63.7524 37.7049Z" fill="#008DD2"/>
<path fill-rule="evenodd" clip-rule="evenodd" d="M60.8852 13.5811C61.2435 13.2414 61.6018 12.5619 61.9601 11.8824C62.3184 10.8632 61.9601 10.5235 61.9601 9.50427C62.3184 9.16453 63.7517 8.48506 64.11 8.48506C64.8266 10.1837 64.4683 12.2222 63.7517 13.5811C62.6767 15.9593 58.7354 17.9977 58.0188 15.9593C58.0188 14.9401 59.0937 12.9016 57.3021 10.8632C56.2272 10.1837 55.8689 10.1837 54.794 10.1837V7.80558C56.2272 7.46585 58.3771 8.82479 59.0937 9.50427C60.1686 10.5235 60.5269 11.5427 60.8852 13.5811Z" fill="#008DD2"/>
<path fill-rule="evenodd" clip-rule="evenodd" d="M54.794 23.0948C54.4357 25.8128 49.7778 25.4731 50.1361 22.4153C50.4944 19.3575 55.1523 20.037 54.794 23.0948Z" fill="#008DD2"/>
<path fill-rule="evenodd" clip-rule="evenodd" d="M69.4845 23.0948C69.1262 25.8128 64.11 25.4731 64.4683 22.4153C65.1849 19.3575 69.8428 20.037 69.4845 23.0948Z" fill="#008DD2"/>
<path fill-rule="evenodd" clip-rule="evenodd" d="M63.3933 27.1716C63.7516 29.2102 61.6018 30.5692 59.8103 30.5692C58.0188 30.5692 55.869 29.2102 56.2273 27.1716H58.3771C58.7354 27.8511 58.7354 28.5306 59.8103 28.5306C60.8852 28.1909 60.5269 27.8511 60.8852 27.1716H63.3933Z" fill="#008DD2"/>
</svg>
