<svg width="70" height="59" viewBox="0 0 70 59" fill="none" xmlns="http://www.w3.org/2000/svg">
<path fill-rule="evenodd" clip-rule="evenodd" d="M28.8868 47.4302L66.297 41.7289L66.3215 49.5835C63.1774 50.1463 60.2052 50.4399 57.1102 50.9783C53.9906 51.5166 50.9693 51.8836 47.8743 52.373C46.3514 52.6177 30.508 55.1625 29.2798 55.1381C29.4763 53.6699 29.7956 52.8624 29.6237 51.1496C29.5008 50.1708 28.8622 48.1888 28.8868 47.4302ZM5.50232 41.9001L24.7601 47.2589C25.5461 47.4547 25.9391 47.3568 26.2093 48.0664C26.9708 50.0974 27.6095 53.5476 26.2093 55.3583C25.3496 55.3338 21.9353 54.2327 20.8545 53.9391L10.1448 50.9293C8.52363 50.4644 6.16554 49.975 4.76542 49.3878C4.88824 48.6537 5.50232 47.8951 5.77252 46.011C6.01816 44.2247 5.6497 43.4417 5.50232 41.9001ZM28.8376 36.9573L66.2724 31.207L66.3461 39.0128L29.2552 44.7141C29.8202 41.3374 29.6728 40.016 28.8376 36.9573ZM5.47776 31.4028C6.63224 31.5252 7.98323 32.0635 9.06403 32.3326C10.2922 32.6752 11.4467 32.9933 12.6257 33.3359L24.8092 36.7371C25.5461 36.9573 25.9391 36.8595 26.2093 37.5691C27.0199 39.649 27.5849 43.1481 26.1357 44.9099L4.74085 38.9149C4.86367 38.2787 5.13387 37.9851 5.33038 37.3489C6.01816 35.2445 5.99359 33.5561 5.47776 31.4028ZM66.297 20.7342C66.3952 21.7129 66.4443 27.8792 66.2478 28.5644L29.2552 34.1434C29.5008 32.6997 29.7956 31.7454 29.5991 30.0325C29.4763 28.9803 28.8868 27.2675 28.8622 26.4111L66.297 20.7342ZM5.4532 20.881C6.06728 20.9055 8.13062 21.5661 8.86752 21.7864C13.903 23.279 19.5772 24.7471 24.711 26.2153C25.3987 26.4111 25.9146 26.3132 26.1848 26.9739C26.9954 28.9803 27.5603 32.5284 26.2093 34.3391C25.5216 34.3147 16.8752 31.8188 15.4751 31.4028L4.78998 28.3931C4.81455 27.6101 6.14097 26.0196 5.79708 22.6917C5.72339 22.031 5.50232 21.5417 5.4532 20.881ZM66.297 10.2368C66.3952 11.1422 66.4198 17.5042 66.2478 18.0425L29.2798 23.646C29.4517 22.08 29.7465 21.3214 29.5745 19.5107C29.4517 18.3606 28.9113 16.7946 28.8622 15.8892L66.297 10.2368ZM4.76542 17.8957C4.81455 17.3574 5.183 16.7946 5.35494 16.3052C6.16554 14.0296 5.79708 12.3901 5.47776 10.4081C6.4603 10.4815 8.22887 11.0688 9.23597 11.3624L19.6018 14.2743C20.7317 14.5924 21.9599 14.9349 23.1635 15.253C24.7601 15.6935 25.9146 15.7914 26.2339 16.5744C27.2656 19.1681 27.3147 21.3948 26.3076 23.8173C24.8584 23.7194 12.7731 20.049 10.0957 19.3884C8.4745 18.9724 6.28835 18.4096 4.76542 17.8957ZM14.7382 7.03135C17.0226 6.68878 19.3807 6.37068 21.6651 5.9547L42.5195 2.82262L59.542 7.66755C60.1069 7.86331 60.6473 7.91224 61.0649 8.20588C60.6473 8.47504 59.7876 8.52398 59.2718 8.59739C58.7068 8.69526 58.0927 8.79314 57.5278 8.86655C56.3733 9.0623 55.2434 9.23359 54.0889 9.40487C51.8536 9.72297 49.3481 10.0166 47.1129 10.4571C44.9022 10.8975 42.4949 11.1667 40.1123 11.4848C38.2209 11.7539 27.2901 13.6625 26.283 13.4423C24.4653 13.0263 22.1072 12.2433 20.093 11.6805C18.3245 11.1667 8.52363 8.59739 7.71304 8.13247L14.7382 7.03135ZM2.088 17.0638C1.42478 17.0882 0.908951 16.9904 0.491372 17.5042C0.172047 17.8957 0.0983561 18.5809 0.393118 19.0703C1.10546 20.1714 1.74411 18.8745 2.6284 20.9544C3.61093 23.1811 3.31617 25.7014 2.088 27.5611C1.35109 27.5856 0.884388 27.5366 0.491372 28.026C0.0983561 28.491 0.0983561 29.1516 0.442245 29.641C0.810697 30.1304 1.22828 30.0815 1.79324 30.3017C2.75121 30.6443 4.27415 34.804 2.088 38.0829C1.35109 38.1074 0.908951 38.034 0.515935 38.5234C0.172047 38.9149 0.0983561 39.5266 0.393118 40.0405C0.68788 40.5543 1.10546 40.6033 1.67042 40.7746C2.94772 41.1661 3.29161 44.2981 3.16879 45.5461C3.04597 46.9898 2.60383 47.6015 2.11256 48.6047C1.00721 48.5558 0.000102147 48.8494 0.221174 50.1463C0.417681 51.1496 1.57217 51.2474 2.48101 51.5166C4.32328 52.0305 6.38661 52.6422 8.10605 53.0826C11.8888 54.0614 15.5488 55.2115 19.2824 56.1902C21.1001 56.6796 22.9424 57.218 24.7601 57.7563C27.2901 58.5393 28.4937 57.9765 30.9501 57.6095L61.9246 52.9114C63.1037 52.7401 67.2304 52.2507 68.1146 51.9326C69.0972 51.5411 68.9498 50.4889 68.9498 49.3878V10.2124C68.9498 8.98889 69.1217 8.01012 68.262 7.52073C67.7953 7.25157 66.125 6.83559 65.5355 6.66431C58.3384 4.58441 50.4289 2.13748 43.4283 0.253342C42.4458 -0.0158211 38.4911 0.742728 37.1892 0.962952C26.9462 2.6024 16.4822 3.94821 6.26379 5.66106C4.86367 5.88129 1.20371 6.12598 0.491372 7.03135C-0.29466 7.96118 0.442245 8.89102 1.40022 9.16018C2.21082 9.40487 2.40732 9.50275 2.92316 11.2401C3.56181 13.3934 3.11966 15.4733 2.088 17.0638Z" fill="#008DD2" stroke="#008DD2" stroke-width="0.0761876"/>
</svg>
