<svg width="75" height="62" viewBox="0 0 75 62" fill="none" xmlns="http://www.w3.org/2000/svg">
<path fill-rule="evenodd" clip-rule="evenodd" d="M57.0234 57.8698C56.9794 57.6535 56.8914 50.4522 57.0674 50.2576C57.3753 49.9332 59.0912 50.1495 59.6411 50.1495H67.4943C69.0782 50.1279 69.0122 49.8035 68.9902 51.2956C68.9682 53.004 68.9682 54.7557 68.9902 56.4857C69.0122 58.7996 68.6382 58.9726 66.3285 58.9726C64.5686 58.951 62.8088 58.9726 61.049 58.9726C59.3771 58.9726 57.3753 59.2754 57.0234 57.8698ZM6.03241 50.1711L17.9772 50.1495L17.9992 57.5238C17.9332 58.8213 17.0533 58.9726 15.8214 58.9726L8.32019 58.9943C7.11031 58.9943 6.1424 58.8645 6.03241 57.6319C5.92242 56.5506 6.01042 55.0585 6.01042 53.9339C6.01042 52.7878 5.92242 51.2956 6.03241 50.1711ZM71.8279 45.1973C71.278 46.7976 70.1561 47.1868 68.0883 47.1868C54.6256 47.2301 40.789 47.0571 27.4143 47.1868H10.08C8.56216 47.2084 5.70245 47.4463 4.55856 46.8192C2.99671 45.9758 3.04071 44.8513 3.01871 42.6455V31.2489C3.01871 29.1945 3.0847 27.9186 4.05261 26.4913C6.29639 23.161 9.35408 23.5935 12.7857 23.6151C16.6354 23.6151 20.507 23.5935 24.3786 23.6151H59.1792C61.093 23.6151 63.0068 23.6368 64.9206 23.5935C66.8124 23.5503 68.2863 24.0044 69.4741 24.9127C72.3339 27.1401 71.9819 29.6054 71.9819 33.9088C71.9819 35.6389 72.1579 44.2458 71.8279 45.1973ZM65.1406 20.6525H11.2679C11.3559 20.0469 16.8773 5.1038 17.2513 4.43341C18.1312 2.94126 19.2091 2.96289 21.3209 2.96289H55.0656C59.5311 2.98451 59.1792 3.46027 60.851 8.28273C61.4669 10.056 64.9866 19.7874 65.1406 20.6525ZM2.99671 49.371C3.06271 51.793 2.62275 57.6751 3.43667 59.4268C4.95452 62.5841 8.47417 61.9353 11.5979 61.9353C15.2715 61.9353 18.6152 62.5408 20.265 59.9242C21.6729 57.7184 20.705 53.1122 21.0129 50.1711C22.2888 50.0197 24.3126 50.1495 25.6545 50.1495H49.3241C50.0281 50.1495 53.6577 49.9765 53.9217 50.236C54.1857 50.5387 54.0097 54.1502 54.0097 54.8638C54.0097 58.3888 53.8997 60.2053 56.6274 61.5244C58.0353 62.2165 63.6887 61.9353 65.7345 61.9353C67.5383 61.9353 68.4842 62.0867 69.8261 61.2866C70.75 60.7459 71.5859 59.7728 71.8719 58.605C72.2679 56.9399 71.9599 51.4686 72.0039 49.371C75.1276 47.1436 74.9956 45.8244 74.9956 41.2615C74.9956 37.5419 74.9956 33.8223 74.9956 30.1028C74.9956 26.8373 74.0057 24.4369 71.344 22.5122C67.6703 19.8307 69.5621 23.853 66.7684 15.8516C65.7565 12.9971 64.8986 10.4236 63.8867 7.61235C62.7648 4.51992 62.4128 1.98975 59.6191 0.627346C58.0573 -0.129543 56.5834 0.000209644 54.6036 0.021835L20.617 0.000209644C14.5456 -0.0214157 14.2156 3.59002 12.3678 8.71524L8.32019 20.0686C8.10021 20.6741 8.2102 20.6957 7.68225 20.8471C5.81244 21.3661 5.1965 21.431 3.72264 22.4474C1.17089 24.199 0.00500928 26.8373 0.00500928 29.973C0.00500928 33.7142 0.00500928 37.4338 0.00500928 41.1533C0.00500928 45.8893 -0.0389864 47.2301 2.99671 49.371Z" fill="#009EC1"/>
<path fill-rule="evenodd" clip-rule="evenodd" d="M24.0043 32.46H36.2131C40.3707 32.46 47.146 32.3303 50.9957 32.4817C50.9957 33.7359 51.0617 37.3041 50.9517 38.3421L46.5301 38.3638C39.1828 38.3205 31.3076 38.4719 24.0483 38.3421L24.0043 34.4712V32.46ZM21.0126 40.1154C21.3866 41.6941 23.6304 41.3048 25.4342 41.2832C27.304 41.2832 29.1738 41.3048 31.0656 41.3048C34.8053 41.2832 38.5669 41.2616 42.3065 41.2832C43.9344 41.3048 52.5575 41.5427 53.3274 41.0453C54.4053 40.3317 54.0094 37.7583 54.0094 36.2012C54.0094 34.947 54.1633 31.768 53.9654 30.7084C53.6794 29.0648 51.3036 29.4974 49.5658 29.4974C47.696 29.4974 45.8262 29.4974 43.9344 29.4974H27.062C25.8742 29.4974 22.4425 29.2378 21.6726 29.7352C20.5947 30.4489 20.9906 33.0655 20.9906 34.6009C20.9906 35.7255 20.8367 39.272 21.0126 40.1154Z" fill="#009EC1"/>
<path fill-rule="evenodd" clip-rule="evenodd" d="M65.9102 36.093C64.9863 39.8558 59.1568 38.515 60.0807 34.6657C60.9387 31.1192 66.8561 32.1572 65.9102 36.093ZM57.001 36.093C57.419 39.034 60.1247 41.694 63.7324 41.2615C66.8121 40.8722 69.3418 38.1258 68.9679 34.7306C68.6159 31.703 65.8222 29.108 62.2585 29.5405C59.2888 29.9081 56.5391 32.6762 57.001 36.093Z" fill="#009EC1"/>
<path fill-rule="evenodd" clip-rule="evenodd" d="M9.0458 35.8552C8.45186 31.8545 14.4573 31.2706 14.9632 34.9685C15.5132 38.9043 9.57375 39.5747 9.0458 35.8552ZM17.9329 36.2012C18.4609 32.8276 15.8871 29.9731 12.8294 29.5622C9.37577 29.0864 6.42806 31.595 6.05409 34.4928C5.59214 37.9745 8.0339 40.829 11.1576 41.2399C14.7652 41.7156 17.471 39.2071 17.9329 36.2012Z" fill="#009EC1"/>
</svg>
