<?xml version="1.0" encoding="utf-8"?>
<svg height="512pt" viewBox="0 0 512 512" width="512pt" xmlns="http://www.w3.org/2000/svg">
  <path d="M 382.353 355.489 C 377.924 360.03 373.352 364.432 368.636 368.676 C 364.392 373.392 359.99 377.964 355.449 382.393 L 464.961 491.904 C 471.691 498.635 480.504 502 489.325 502 C 493 502 496.674 501.408 500.197 500.237 C 504.172 488.257 501.399 474.531 491.865 465.001 Z M 382.353 355.489" fill="#4dbbeb" style=""/>
  <path d="M 365.398 396.641 C 371.293 392.002 377 387.14 382.552 382.109 C 387.583 376.557 392.444 370.851 397.083 364.956 L 344.704 312.577 C 339.564 318.005 334.181 323.19 328.569 328.126 C 323.637 333.738 318.448 339.122 313.02 344.262 Z M 365.398 396.641" fill="#fff5cd" style=""/>
  <path d="M 200.054 3.935 C 97.533 17.16 18.311 99.877 18.311 199.651 C 18.311 299.435 97.55 382.161 200.084 395.371 C 235.078 390.849 267.362 378.233 294.703 359.601 C 312.734 347.323 328.616 332.42 341.702 315.501 C 366.913 282.933 381.796 242.886 381.796 199.651 C 381.796 99.877 302.574 17.16 200.054 3.935 Z M 200.054 3.935" fill="#4dbbeb" style=""/>
  <path d="m200 50c82.710938 0 150 67.289062 150 150s-67.289062 150-150 150-150-67.289062-150-150 67.289062-150 150-150zm0 0" fill="#fff"/>
  <path d="m225 52.09375c-70.851562 11.9375-125 73.714844-125 147.90625s54.148438 135.96875 125 147.90625c70.851562-11.9375 125-73.714844 125-147.90625s-54.148438-135.96875-125-147.90625zm0 0" fill="#bee7f4"/>
  <path d="m500.28125 443.71875-133.480469-133.480469c21.746094-32.753906 33.199219-70.683593 33.199219-110.238281 0-110.28125-89.71875-200-200-200s-200 89.71875-200 200 89.71875 200 200 200c39.554688 0 77.484375-11.453125 110.238281-33.199219l36.894531 36.894531c.007813.007813.011719.011719.015626.019532l96.570312 96.566406c7.558594 7.558594 17.601562 11.71875 28.28125 11.71875s20.722656-4.160156 28.277344-11.714844c7.558594-7.554687 11.722656-17.597656 11.722656-28.285156s-4.164062-20.730469-11.71875-28.28125zm-173.765625-88.925781c10.351563-8.46875 19.8125-17.929688 28.277344-28.277344l28.371093 28.371094c-8.628906 10.183593-18.09375 19.648437-28.277343 28.277343zm-306.515625-154.792969c0-99.253906 80.746094-180 180-180s180 80.746094 180 180c0 38.175781-11.851562 74.667969-34.273438 105.535156-11.214843 15.453125-24.738281 28.976563-40.191406 40.191406v.003907c-30.867187 22.417969-67.359375 34.269531-105.535156 34.269531-99.253906 0-180-80.746094-180-180zm466.140625 286.140625c-3.78125 3.777344-8.800781 5.859375-14.140625 5.859375s-10.359375-2.082031-14.140625-5.859375l-88.792969-88.796875c10.125-8.691406 19.585938-18.148438 28.277344-28.277344l88.796875 88.796875c3.777344 3.777344 5.859375 8.792969 5.859375 14.136719s-2.082031 10.359375-5.859375 14.140625zm0 0"/>
  <path d="m360 200c0-88.226562-71.773438-160-160-160s-160 71.773438-160 160 71.773438 160 160 160 160-71.773438 160-160zm-160 140c-77.195312 0-140-62.804688-140-140s62.804688-140 140-140 140 62.804688 140 140-62.804688 140-140 140zm0 0"/>
</svg>