<svg xmlns="http://www.w3.org/2000/svg" width="62.678" height="49.19" viewBox="0 0 62.678 49.19">
  <g id="Сгруппировать_135" data-name="Сгруппировать 135" transform="translate(-271.718 -696.231)">
    <g id="Сгруппировать_124" data-name="Сгруппировать 124">
      <g id="Сгруппировать_123" data-name="Сгруппировать 123">
        <path id="Контур_432" data-name="Контур 432" d="M288.484,736.547m-.691,0H272.718v-3.67L276.4,729.4c7.324-6.951,10.771-10.769,10.819-14.978,0-2.839-1.484-5.335-5.554-5.335a11.068,11.068,0,0,0-6.654,2.643l-1.723-4.258a15.185,15.185,0,0,1,9.574-3.28c6.894,0,10.245,4.454,10.245,9.643,0,5.58-3.926,10.083-9.383,15.223l-2.681,2.4v.1h12.734" fill="none" stroke="#010742" stroke-miterlimit="10" stroke-width="2"/>
      </g>
      <path id="Контур_433" data-name="Контур 433" d="M287.655,704.885a23.594,23.594,0,1,1-.083,31.792" fill="none" stroke="#010742" stroke-miterlimit="10" stroke-width="2"/>
    </g>
    <g id="Сгруппировать_125" data-name="Сгруппировать 125">
      <path id="Контур_434" data-name="Контур 434" d="M311.4,728.984l-13.942-13.175a1.02,1.02,0,0,1-.041-1.441l2.166-2.291a1.019,1.019,0,0,1,1.44-.041l10.215,9.653a1.017,1.017,0,0,0,1.431-.032l17.711-18.294a1.018,1.018,0,0,1,1.44-.024l2.266,2.193a1.02,1.02,0,0,1,.023,1.441l-21.277,21.979A1.018,1.018,0,0,1,311.4,728.984Z" fill="#5f616b"/>
    </g>
  </g>
</svg>
