<svg xmlns="http://www.w3.org/2000/svg" width="61.251" height="50.677" viewBox="0 0 61.251 50.677">
  <g id="Сгруппировать_138" data-name="Сгруппировать 138" transform="translate(-273.145 -907.391)">
    <g id="Сгруппировать_104" data-name="Сгруппировать 104">
      <path id="Контур_417" data-name="Контур 417" d="M286.221,950.245a19.422,19.422,0,0,1-3.374.35,18.2,18.2,0,0,1-8.54-1.918l1.234-4.694a15.958,15.958,0,0,0,7.06,1.716c3.554,0,6.961-2.069,6.961-5.956,0-3.786-2.716-6.26-9.084-6.26a33.292,33.292,0,0,0-4.394.3l2.074-16.558H294.8v5.149H282.453l-.939,6.562a14.68,14.68,0,0,1,2.272-.151,13.955,13.955,0,0,1,7.8,2.12,9.028,9.028,0,0,1,3.918,5.725" fill="none" stroke="#010742" stroke-miterlimit="10" stroke-width="2"/>
    </g>
    <path id="Контур_419" data-name="Контур 419" d="M284.177,917.306a24.332,24.332,0,1,1,1.726,32.741" fill="none" stroke="#010742" stroke-miterlimit="10" stroke-width="2"/>
    <g id="Сгруппировать_126" data-name="Сгруппировать 126">
      <path id="Контур_435" data-name="Контур 435" d="M311.4,940.835,297.458,927.66a1.02,1.02,0,0,1-.041-1.441l2.166-2.291a1.019,1.019,0,0,1,1.44-.041l10.215,9.653a1.018,1.018,0,0,0,1.431-.031l17.711-18.295a1.018,1.018,0,0,1,1.44-.024l2.266,2.193a1.02,1.02,0,0,1,.023,1.441L312.832,940.8A1.019,1.019,0,0,1,311.4,940.835Z" fill="#5f616b"/>
    </g>
  </g>
</svg>
