<svg xmlns="http://www.w3.org/2000/svg" width="58.895" height="47.842" viewBox="0 0 58.895 47.842">
  <g id="Сгруппировать_134" data-name="Сгруппировать 134" transform="translate(-275.501 -624.121)">
    <g id="Сгруппировать_122" data-name="Сгруппировать 122">
      <g id="Сгруппировать_121" data-name="Сгруппировать 121">
        <path id="Контур_430" data-name="Контур 430" d="M283.249,663.648m5.534,0-5.534,0v-25.63h-.093l-5.534,2.854-.977-4.423,7.394-3.709h4.744v30.908" fill="none" stroke="#010742" stroke-miterlimit="10" stroke-width="2"/>
      </g>
      <path id="Контур_431" data-name="Контур 431" d="M288.825,632.555a22.922,22.922,0,1,1-.08,30.885" fill="none" stroke="#010742" stroke-miterlimit="10" stroke-width="2"/>
    </g>
    <g id="Сгруппировать_130" data-name="Сгруппировать 130">
      <g id="Сгруппировать_129" data-name="Сгруппировать 129">
        <path id="Контур_438" data-name="Контур 438" d="M311.4,656.555l-13.942-13.176a1.019,1.019,0,0,1-.041-1.44l2.166-2.292a1.018,1.018,0,0,1,1.44-.04l10.215,9.653a1.018,1.018,0,0,0,1.431-.032l17.711-18.3a1.018,1.018,0,0,1,1.44-.023l2.266,2.193a1.019,1.019,0,0,1,.023,1.44l-21.277,21.98A1.019,1.019,0,0,1,311.4,656.555Z" fill="#5f616b"/>
      </g>
    </g>
  </g>
</svg>
