<?xml version="1.0" encoding="UTF-8"?>
<svg viewBox="0 0 68 71" xmlns="http://www.w3.org/2000/svg">
<path d="m39.418 60.085c0.1016-1.3777 0.4402-3.0379 0.6434-4.4155 0.6434-4.4154 0.8805-8.5482 3.1493-11.833 1.2191-1.8015 3.0478-3.3204 5.6214-4.2035 1.49-0.4945 7.45-0.8124 9.0755-0.4945 0.0677 1.9075-1.49 6.1463-2.1673 7.7005-1.9641 4.3801-5.2827 7.9477-9.3125 10.456-1.4223 0.9184-5.1473 2.6493-7.0098 2.7906zm-29.258-21.3c3.0138-0.0354 6.3663-0.2473 9.0077 0.6358s4.4023 2.4373 5.6891 4.1681c2.1673 3.0025 2.5737 7.5592 3.1155 11.727 0.2032 1.4836 0.5418 2.9672 0.6434 4.4507-1.998-0.1766-5.5198-1.8721-6.9421-2.7552-1.7609-1.0597-4.0975-2.8965-5.4182-4.486-1.4561-1.7309-2.6413-3.3204-3.8604-5.8991-0.8128-1.6602-2.2689-5.687-2.235-7.8417zm15.408-2.2961c-1.1513-11.975 15.814-13.494 16.898-1.9428 1.1175 11.975-15.78 13.388-16.898 1.9428zm-14.697-7.6651c0.1016-1.6956 2.2689-5.899 3.1155-7.206 8.0595-12.504 24.551-14.412 35.083-5.8637 1.9302 1.5896 3.4879 3.2498 4.9102 5.4398 0.982 1.5542 3.0139 5.3692 3.1832 7.312-0.8466-0.2473-1.6932-0.6712-2.4721-1.0244-2.3704-0.9891-5.6213-2.0135-8.0595-2.6493-11.344-2.9671-22.587-1.5895-33.254 2.9319-0.8127 0.3532-1.6593 0.7771-2.5059 1.0597zm14.595-1.3777c-0.6435 0.4946-1.9303 2.7553-2.3705 4.0269-0.8127 2.2254-0.745 3.4617-0.5757 5.9343-1.0836-0.3179-1.727-0.989-3.962-1.5189-1.7271-0.4238-8.5676-0.8124-9.9221 0.0707-1.1852 0.7065-1.8625 1.8721-1.5577 3.8856 0.94819 6.3582 3.9282 11.409 7.1791 15.048 2.7768 3.0732 8.0595 7.0294 13.647 8.1244 1.6932 0.3179 2.8785-0.7771 3.488-1.8368 0.745-1.2363 0.2032-3.1791-0.0677-4.7687-0.2709-1.5895-0.4741-3.3204-0.7112-4.9452l-0.7788-4.6981c1.0497 0.4946 2.6752 0.8478 4.0636 0.8478 2.0318 0.0353 2.743-0.4239 4.4362-0.8478l-0.8466 4.804c-0.2709 1.6249-0.4741 3.2498-0.745 4.8746-0.2032 1.3423-0.745 3.6737-0.2371 4.91 0.4741 1.1303 1.5916 2.3313 3.3864 2.0134 4.9102-0.7771 10.599-4.5214 13.816-8.089 3.2848-3.709 6.197-8.4423 7.2468-14.977 0.8127-5.2632-4.1314-4.4861-6.4002-4.4861-2.8784 0-4.5716-0.106-7.2469 0.989-0.5756 0.2473-1.3206 0.6712-1.7947 0.8478-0.0339-2.296 0.5079-3.0731-0.508-6.0756-0.8804-2.5433-2.235-3.6736-2.472-4.3095 2.0656 0.212 5.3166 1.2364 7.2468 1.8722 2.7768 0.9184 4.233 1.6955 6.6034 2.6139 1.5916 0.6005 4.8764-0.7418 3.7589-4.5567-3.1493-10.809-13.139-20.028-26.346-19.922-12.902 0.10597-22.96 9.6786-25.94 20.382-0.44023 1.5895-0.30478 2.5079 0.60954 3.497 0.71114 0.7418 1.9641 1.4483 3.2509 0.9184 2.2011-0.9184 4.233-1.9075 6.5357-2.7199 1.1852-0.3885 6.0955-2.0134 7.213-1.9075z"  fill="#009EC1" />
<path d="m31.459 3.4616c9.1771-1.1304 18.151 3.2144 23.061 7.8417 4.8086 4.5568 9.3802 11.374 10.227 21.371 0.8466 10.067-2.8784 18.792-7.5177 24.196-4.47 5.1925-10.904 9.7493-20.589 10.668-9.5834 0.9184-17.982-3.0732-23.095-7.8418-12.8-11.975-13.85-32.674-2.7091-45.567 5.5198-6.4288 11.785-9.6079 20.623-10.668zm-0.7789-3.2498c-1.0159 0.28259-2.6075 0.38856-3.6573 0.6005-1.1852 0.28259-2.3027 0.6005-3.3863 0.95373-2.0657 0.70647-4.0637 1.6602-5.8923 2.7199-3.9621 2.296-6.9082 4.9806-9.3802 7.9478-4.9102 5.8284-9.4141 15.754-8.1611 26.598 1.253 10.915 6.1971 18.156 11.717 23.243 5.3505 4.9453 15.239 9.8905 25.466 8.4776 9.3803-1.2717 16.458-5.2279 22.282-12.187 5.0118-5.9696 9.2447-15.507 8.1611-26.598-1.0498-10.703-6.4341-18.404-11.683-23.243-4.4361-4.0622-11.04-7.5239-17.508-8.3363-1.998-0.24726-6.0277-0.63582-7.958-0.17662z" fill="#009EC1" />
<path d="m36.777 36.242c-0.6773 3.4616-6.3325 2.8965-5.5198-1.5189 0.6434-3.3911 6.4003-2.8612 5.5198 1.5189zm-4.0298-6.7821c-2.6413 0.7418-5.452 3.7089-4.5377 7.4179 0.7111 2.7199 3.6911 5.6164 7.1452 4.6627 2.6414-0.7065 5.3505-3.815 4.47-7.4179-0.6434-2.6846-3.6572-5.6165-7.0775-4.6627z"  fill="#009EC1" />
</svg>