<svg width="127" height="40" viewBox="0 0 127 40" fill="none" xmlns="http://www.w3.org/2000/svg">
<path d="M19.7515 24.0574L19.7515 24.0573L19.7464 24.0612C19.6478 24.1363 19.5296 24.226 19.3944 24.3288C18.3324 25.1353 16.2146 26.7439 14.2158 28.3412C13.0896 29.2412 11.9955 30.142 11.147 30.8965C10.7233 31.2733 10.3549 31.6188 10.0724 31.9127C9.80793 32.1879 9.56522 32.471 9.45759 32.7138L9.22021 33.2493L9.78627 33.3997C10.091 33.4807 10.629 33.5471 11.2438 33.6051C11.8735 33.6646 12.6278 33.7188 13.3916 33.7678C14.075 33.8117 14.7625 33.8513 15.3802 33.8868C16.1547 33.9314 16.8196 33.9697 17.2294 34.0022L17.2308 34.0023C18.5103 34.1003 19.7447 34.1885 20.9777 34.2766C22.2111 34.3647 23.443 34.4527 24.7196 34.5505L24.7227 34.5507L38.6689 35.5296L38.6728 35.5298C38.7619 35.5354 38.8275 35.539 38.8817 35.542C38.9326 35.5448 38.9734 35.5471 39.0139 35.5498C39.087 35.5548 39.1103 35.5589 39.1245 35.5622C39.1365 35.5649 39.1542 35.5699 39.1989 35.5871L38.7884 39.4969C38.4719 39.5053 38.0192 39.4965 37.4594 39.4715C36.6325 39.4346 35.6243 39.3653 34.595 39.2847C33.0992 39.1676 31.5716 39.0276 30.5008 38.9295C30.0966 38.8924 29.7575 38.8613 29.5098 38.8397L29.5098 38.8396L29.5018 38.8391L2.60098 36.9209C2.3692 36.8998 2.14121 36.8948 1.93075 36.8912C1.912 36.8908 1.89341 36.8905 1.87496 36.8902C1.6794 36.8869 1.50018 36.8839 1.32284 36.8715C1.0263 36.8508 0.761003 36.805 0.511182 36.7003C0.480099 36.2886 0.515486 35.6719 0.585848 34.9838C0.642448 34.4303 0.715941 33.8764 0.779083 33.4005C0.809187 33.1736 0.836938 32.9645 0.859383 32.7816L0.860282 32.7743L0.860964 32.7669C0.928125 32.0437 0.995297 31.3496 1.06257 30.6545L1.06261 30.6541C1.12985 29.9594 1.1972 29.2636 1.26455 28.5382C1.3992 27.0882 1.52262 25.6775 1.6459 24.2684L1.64596 24.2677C1.76921 22.8589 1.89234 21.4515 2.02663 20.0053C2.08265 19.4666 2.19697 18.1915 2.34241 16.5694C2.48945 14.9294 2.66829 12.9347 2.85083 10.9876C3.03295 9.04519 3.219 7.14728 3.38176 5.68468C3.4632 4.95288 3.53838 4.3339 3.60395 3.87425C3.62779 3.70712 3.65001 3.56353 3.67043 3.44469L8.23032 3.67694C8.23176 3.6979 8.23309 3.71985 8.2343 3.74281C8.24473 3.94156 8.24424 4.18571 8.23436 4.46523C8.21462 5.0239 8.15846 5.69635 8.0888 6.37752C8.01929 7.05731 7.93714 7.73823 7.86644 8.31281C7.85563 8.40066 7.84504 8.48634 7.83478 8.56937C7.77873 9.02311 7.73247 9.39754 7.71273 9.61301L7.71264 9.61407C7.65715 10.2342 7.51927 11.6407 7.34443 13.4244C7.16636 15.241 6.94994 17.4487 6.74318 19.6151C6.53854 21.7592 6.34355 23.8611 6.20528 25.4961C6.13617 26.3134 6.08103 27.0163 6.04596 27.5504C6.01224 28.0639 5.99333 28.4676 6.00827 28.6502L6.08484 29.5862L6.81864 29.0001L16.2735 21.4489C34.3804 8.02187 54.2661 -0.328095 73.9279 0.565246L73.9285 0.565273C88.031 1.18874 100.959 4.38201 113.934 11.5065C115.744 12.5013 118.265 13.9529 120.666 15.5289C122.928 17.0135 125.047 18.5856 126.373 19.9752C126.323 20.0389 126.263 20.1102 126.192 20.1888C126.005 20.395 125.77 20.6213 125.514 20.8542C125.259 21.0865 124.991 21.3184 124.737 21.5374L124.72 21.5526C124.48 21.7592 124.251 21.9572 124.07 22.1249C123.891 22.2727 123.742 22.4106 123.622 22.522C123.601 22.5417 123.581 22.5606 123.561 22.5785C123.418 22.7103 123.341 22.7748 123.282 22.8096C123.27 22.8167 123.261 22.8208 123.256 22.8231C123.253 22.8244 123.251 22.8251 123.25 22.8255C123.249 22.8255 123.249 22.8254 123.249 22.8254C123.233 22.8235 123.167 22.8091 123.017 22.7118C122.849 22.5969 122.574 22.3589 122.268 22.0818C122.156 21.98 122.04 21.8732 121.927 21.77C121.749 21.6061 121.58 21.4515 121.454 21.3416L121.448 21.3358L121.441 21.3302C112.937 14.4189 100.036 8.83094 88.9913 6.39044C64.1969 0.869967 42.0785 7.51042 19.7515 24.0574Z" fill="#FEFEFE" stroke="white"/>
</svg>
