<svg width="72" height="58" viewBox="0 0 72 58" fill="none" xmlns="http://www.w3.org/2000/svg">
<path fill-rule="evenodd" clip-rule="evenodd" d="M2.55924 7.56406C2.55924 4.60347 3.83886 3.75759 6.82465 3.75759H61.4218C63.128 3.75759 66.5403 3.33464 67.8199 4.60347C68.2465 5.02641 68.673 5.87229 68.673 7.14112V47.3206C68.673 51.1271 69.0995 54.5106 64.8341 54.5106H9.38389C5.54503 54.5106 2.55924 54.9335 2.55924 50.7041V7.56406ZM0 7.14112V50.7041C0 53.2418 0.853081 54.5106 2.1327 55.7794C4.69194 57.4712 6.82465 57.0482 10.237 57.0482C29.8578 57.0482 43.5071 57.0482 62.7014 57.0482C65.6872 57.0482 67.3934 57.4712 69.5261 55.3565C72.0853 53.2418 71.2322 50.2812 71.2322 46.0518V10.9476C71.2322 7.56406 72.0853 2.9117 67.3934 1.21994C65.6872 0.796994 58.436 0.796994 55.8768 0.796994H9.81043C6.82465 0.796994 4.69194 0.374052 2.55924 2.06582C1.27962 2.9117 0 4.60347 0 7.14112Z" fill="#009EC1"/>
<path fill-rule="evenodd" clip-rule="evenodd" d="M8.95731 43.0912C8.95731 42.6683 8.95731 41.3995 8.95731 40.9765C8.95731 38.8618 9.38385 39.2848 12.7962 37.17C15.3554 36.3242 17.4881 35.0553 19.6208 33.7865C23.4597 32.0947 22.6066 31.6718 26.4455 33.7865C29.4313 35.0553 34.1232 37.17 36.6824 38.8618C37.5355 39.2848 37.5355 39.2848 37.5355 40.5536C37.5355 40.9765 37.5355 42.2453 37.5355 43.0912C37.109 44.3601 34.9763 43.9371 33.2701 43.9371H13.2227C11.9431 43.9371 9.38385 44.3601 8.95731 43.0912ZM21.7535 14.3312C26.4455 13.0624 29.4313 16.8688 29.8578 20.6753C30.2843 24.9047 28.1516 28.7112 24.7393 29.5571C15.3554 31.2489 13.6493 16.4459 21.7535 14.3312ZM27.7251 31.2489C27.7251 30.8259 28.5782 30.403 29.0047 29.98C36.2559 24.0589 31.9905 11.3706 23.0331 11.3706C16.635 11.3706 11.5166 19.4065 14.9289 26.5965C16.2085 29.5571 17.9147 29.98 18.7677 31.2489C18.3412 31.6718 12.7962 34.2095 11.5166 35.0553C8.10423 36.3242 6.39807 36.7471 6.39807 40.9765C6.39807 43.5142 6.39807 44.3601 7.67769 45.6289C8.95731 46.8977 9.81039 46.8977 11.9431 46.8977C15.782 46.8977 19.6208 46.8977 23.0331 46.8977C26.872 46.8977 30.7109 46.8977 34.5497 46.8977C36.6824 46.8977 37.5355 46.4748 38.8151 45.2059C40.0948 43.9371 40.0948 43.0912 40.0948 40.9765C40.0948 36.7471 37.9621 36.3242 34.9763 35.0553C33.6967 34.2095 28.5782 31.6718 27.7251 31.2489Z" fill="#009EC1"/>
<path fill-rule="evenodd" clip-rule="evenodd" d="M60.1422 43.9366C59.7156 43.9366 51.1848 43.9366 49.9052 43.9366C47.7725 43.9366 47.7725 43.5137 47.7725 45.2055C47.7725 45.6284 47.7725 46.0514 47.7725 46.8972C48.6256 46.8972 53.3175 46.8972 54.1706 46.8972C55.0237 46.8972 59.7156 46.8972 60.1422 46.8972V43.9366Z" fill="#009EC1"/>
<path fill-rule="evenodd" clip-rule="evenodd" d="M58.8626 13.9076C59.2891 13.9076 60.1422 13.9076 60.1422 13.9076C60.1422 13.4847 60.1422 11.37 60.1422 10.947H48.1991C47.7725 11.7929 47.7725 13.0617 48.1991 13.9076H58.8626Z" fill="#009EC1"/>
<path fill-rule="evenodd" clip-rule="evenodd" d="M47.7725 21.9441H60.1422V19.4065C59.7156 19.4065 48.1991 19.4065 47.7725 19.4065V21.9441Z" fill="#009EC1"/>
<path fill-rule="evenodd" clip-rule="evenodd" d="M47.7725 38.4383C48.1991 38.4383 59.7156 38.8612 60.1422 38.4383V35.9006H47.7725V38.4383Z" fill="#009EC1"/>
<path fill-rule="evenodd" clip-rule="evenodd" d="M48.1991 30.403H60.1422V27.4424H48.1991V30.403Z" fill="#009EC1"/>
</svg>
