<svg width="73" height="70" viewBox="0 0 73 70" fill="none" xmlns="http://www.w3.org/2000/svg">
<path fill-rule="evenodd" clip-rule="evenodd" d="M29.0254 65.4987C28.7714 59.1385 29.0254 51.8855 28.9891 45.3393C28.9891 43.5912 29.3156 43.4052 30.1864 42.5869C33.4515 39.6486 38.2768 39.6858 41.4694 42.7729C42.449 43.7028 42.4852 43.8143 42.4852 45.6741C42.449 52.1459 42.7029 59.25 42.449 65.5359L29.0254 65.4987ZM8.92634 25.4031C11.212 23.8781 13.7516 21.9068 15.9284 20.2702C18.4317 18.4105 20.4633 16.9227 22.7853 15.2118C24.9258 13.6124 27.4654 11.7899 29.751 10.0789L36.6805 5.05769C37.66 5.46683 58.1582 21.0141 60.6615 22.8738C61.7861 23.6921 62.9834 24.6964 63.9992 25.3287C64.2169 36.4498 63.9992 49.9514 63.9992 61.3701C63.9992 64.3457 62.802 65.5731 59.7908 65.5731C56.1265 65.5731 50.2491 65.7219 46.8388 65.5359C46.5849 63.9366 46.7663 48.2033 46.7663 45.1533C46.7663 42.8845 46.8751 42.5497 45.7142 41.0991C40.3084 34.2926 30.8757 34.3297 25.6151 41.2851C24.4541 42.8473 24.7081 43.1076 24.7081 45.3393C24.7081 48.3521 24.9258 63.9738 24.6355 65.5731H13.0622C10.1961 65.5731 8.89005 64.3085 8.89005 61.3701L8.92634 25.4031ZM16.9805 4.42538L20.2819 4.46258C20.5359 5.39244 20.4633 10.3021 20.3545 11.4923C20.028 11.9015 17.6698 13.7984 16.9079 13.9844L16.9805 4.42538ZM4.60903 28.6762C4.79043 30.5359 4.64531 43.9259 4.64531 46.9387C4.64531 50.9557 4.10111 62.0768 5.29835 64.8292C7.98306 70.8547 13.425 69.9249 18.2865 69.9249H54.2399C59.2828 69.9249 64.7611 70.9291 67.5184 65.0152C68.6068 62.7091 68.2803 59.4732 68.2803 56.5349C68.2803 48.2405 67.9537 36.2267 68.3165 28.7506C69.3324 29.0853 70.711 30.9822 72.3073 29.3085C73.9036 27.6347 72.3436 26.2213 71.364 25.4775L45.1337 5.87597C43.9364 4.9833 43.1746 4.35099 41.941 3.45833C37.6237 0.333989 37.3335 -0.930623 34.7939 1.00349C33.379 2.08213 25.2886 8.10764 24.7081 8.29361C24.5993 6.21072 25.3249 1.71019 23.8737 0.557156C22.8215 -0.298317 17.7423 0.0736281 15.8558 0.0736281C12.0464 0.0736281 12.6269 1.93335 12.6269 5.42963V16.3276C12.6269 17.2947 12.5906 17.3691 11.9376 17.8154C11.0668 18.4849 10.3775 18.9684 9.43425 19.6751L2.03315 25.1055C1.19872 25.7378 0.11032 26.2957 0.00147998 27.5232C-0.10736 28.8994 0.835918 29.792 1.81547 29.9408C3.12155 30.1268 3.84715 29.0109 4.60903 28.6762Z" fill="#009EC1"/>
</svg>
