<svg xmlns="http://www.w3.org/2000/svg" width="371.778" height="369.387" viewBox="0 0 371.778 369.387">
  <g id="Сгруппировать_90" data-name="Сгруппировать 90" transform="translate(-1365.785 -55.518)">
    <g id="Сгруппировать_80" data-name="Сгруппировать 80">
      <path id="Контур_225" data-name="Контур 225" d="M1434.249,336.285l.53-2.492a5.684,5.684,0,0,0,3.879,1.4q3.059,0,3.491-2.038a1.6,1.6,0,0,0-.052-.985,1.919,1.919,0,0,0-.557-.715,4.158,4.158,0,0,0-.928-.559q-.549-.248-1.186-.517a13.129,13.129,0,0,1-1.529-.771,3.787,3.787,0,0,1-1.031-.878,2.513,2.513,0,0,1-.5-1.111,3.743,3.743,0,0,1,.063-1.459,4.223,4.223,0,0,1,.85-1.806,5.677,5.677,0,0,1,1.526-1.316,7.287,7.287,0,0,1,1.947-.8,8.556,8.556,0,0,1,2.117-.269,7.359,7.359,0,0,1,3.232.652l-.5,2.35a5.547,5.547,0,0,0-3.459-1.048,4.675,4.675,0,0,0-1.208.149,3.647,3.647,0,0,0-.988.417,2.675,2.675,0,0,0-.717.645,2.072,2.072,0,0,0-.38.828,1.859,1.859,0,0,0,0,.948,1.539,1.539,0,0,0,.456.68,3.459,3.459,0,0,0,.849.538q.514.242,1.177.524a13.844,13.844,0,0,1,1.566.758,4.371,4.371,0,0,1,1.117.878,2.564,2.564,0,0,1,.588,1.125,3.428,3.428,0,0,1-.031,1.515,4.355,4.355,0,0,1-.871,1.869,5.57,5.57,0,0,1-1.548,1.316,7.243,7.243,0,0,1-1.991.78,9.71,9.71,0,0,1-2.222.254A7.171,7.171,0,0,1,1434.249,336.285Z" fill="#010742" stroke="#010742" stroke-miterlimit="10" stroke-width="0.25"/>
      <path id="Контур_226" data-name="Контур 226" d="M1449.641,336.809h-2.322l3.082-14.5h2.322Zm2.732-18.181a1.188,1.188,0,0,1-.972-.424,1.216,1.216,0,0,1-.21-1.076,1.869,1.869,0,0,1,.669-1.084,1.8,1.8,0,0,1,1.155-.431,1.213,1.213,0,0,1,.991.431,1.229,1.229,0,0,1,.215,1.084,1.963,1.963,0,0,1-1.848,1.5Z" fill="#010742" stroke="#010742" stroke-miterlimit="10" stroke-width="0.25"/>
      <path id="Контур_227" data-name="Контур 227" d="M1466.376,336.809h-2.321l1.758-8.269q.981-4.615-2.389-4.616a4.551,4.551,0,0,0-3.159,1.309,6.1,6.1,0,0,0-1.844,3.307l-1.758,8.269h-2.321l3.082-14.5h2.321l-.512,2.407h.057a6.681,6.681,0,0,1,5.342-2.747,3.553,3.553,0,0,1,3.311,1.536,6.111,6.111,0,0,1,.317,4.439Z" fill="#010742" stroke="#010742" stroke-miterlimit="10" stroke-width="0.25"/>
      <path id="Контур_228" data-name="Контур 228" d="M1480.776,336.143a8.737,8.737,0,0,1-4.178,1.005,5.289,5.289,0,0,1-4.576-2.018,6.3,6.3,0,0,1-.793-5.231,10.151,10.151,0,0,1,3.277-5.755,8.789,8.789,0,0,1,5.941-2.174,6.7,6.7,0,0,1,3.22.708l-.506,2.379a4.9,4.9,0,0,0-3.214-1.133,5.781,5.781,0,0,0-3.984,1.593,7.6,7.6,0,0,0-2.313,4.184,5.025,5.025,0,0,0,.484,4.021,3.707,3.707,0,0,0,3.276,1.472,7.013,7.013,0,0,0,3.836-1.26Z" fill="#010742" stroke="#010742" stroke-miterlimit="10" stroke-width="0.25"/>
      <path id="Контур_229" data-name="Контур 229" d="M1497.217,330.14H1486.98a4.7,4.7,0,0,0,.507,3.738,3.648,3.648,0,0,0,3.148,1.316,8.6,8.6,0,0,0,4.845-1.614l-.463,2.18a9.853,9.853,0,0,1-5.35,1.388,4.929,4.929,0,0,1-4.408-1.975q-1.336-1.976-.574-5.557a9.982,9.982,0,0,1,3.089-5.515,7.646,7.646,0,0,1,5.218-2.131,4.374,4.374,0,0,1,4.012,1.84q1.165,1.842.472,5.112Zm-1.961-1.968a4.165,4.165,0,0,0-.3-3.13,2.648,2.648,0,0,0-2.416-1.118,4.629,4.629,0,0,0-3.04,1.175,6.948,6.948,0,0,0-2.068,3.073Z" fill="#010742" stroke="#010742" stroke-miterlimit="10" stroke-width="0.25"/>
      <path id="Контур_230" data-name="Контур 230" d="M1518.5,336.809h-12.233l.439-2.068,7.179-5.932a33.809,33.809,0,0,0,4.038-3.774,7.251,7.251,0,0,0,1.654-3.22,3.083,3.083,0,0,0-.426-2.719,3.279,3.279,0,0,0-2.657-.963,9.432,9.432,0,0,0-5.7,2.322l.518-2.435a10.473,10.473,0,0,1,5.929-1.855,4.908,4.908,0,0,1,3.963,1.473,4.406,4.406,0,0,1,.718,3.95,9.25,9.25,0,0,1-1.887,3.815,33.1,33.1,0,0,1-4.848,4.623l-5.67,4.63-.013.057h9.444Z" fill="#010742" stroke="#010742" stroke-miterlimit="10" stroke-width="0.25"/>
      <path id="Контур_231" data-name="Контур 231" d="M1528.079,337.148a4.156,4.156,0,0,1-4.157-2.591q-1.141-2.591-.1-7.49a18.383,18.383,0,0,1,3.493-8.141,7.2,7.2,0,0,1,5.676-2.761q6.372,0,4.159,10.407a17.218,17.218,0,0,1-3.469,7.865A7.233,7.233,0,0,1,1528.079,337.148Zm4.368-19.015q-4.347,0-6.221,8.821-1.75,8.239,2.51,8.24,4.2,0,5.987-8.381Q1536.567,318.133,1532.447,318.133Z" fill="#010742" stroke="#010742" stroke-miterlimit="10" stroke-width="0.25"/>
      <path id="Контур_232" data-name="Контур 232" d="M1550.14,336.809h-11.483l.434-2.039h4.587L1547.03,319l-5,1.4.47-2.208,7.477-2.138L1546,334.77h4.573Z" fill="#010742" stroke="#010742" stroke-miterlimit="10" stroke-width="0.25"/>
      <path id="Контур_233" data-name="Контур 233" d="M1559.341,337.148a4.156,4.156,0,0,1-4.157-2.591q-1.141-2.591-.1-7.49a18.384,18.384,0,0,1,3.493-8.141,7.2,7.2,0,0,1,5.676-2.761q6.372,0,4.159,10.407a17.218,17.218,0,0,1-3.47,7.865A7.231,7.231,0,0,1,1559.341,337.148Zm4.368-19.015q-4.348,0-6.222,8.821-1.751,8.239,2.511,8.24,4.2,0,5.986-8.381Q1567.829,318.133,1563.709,318.133Z" fill="#010742" stroke="#010742" stroke-miterlimit="10" stroke-width="0.25"/>
    </g>
    <g id="Сгруппировать_83" data-name="Сгруппировать 83">
      <g id="Сгруппировать_81" data-name="Сгруппировать 81">
        <path id="Контур_234" data-name="Контур 234" d="M1672.752,307.555c-3.612,0-75.043-.264-78.606-.528-20.037-1.319-29.942-6.332-39.131-22.693-7.781-13.456-14.7-30.079-21.089-43.537-3.989-8.443-7.307-10.026-21.477-10.026h-9.725l-5.043,41.427c-4.165,22.427-4,23.747,17.834,25.857l-1.372,7.389h-70.7l1.372-7.389c23.5-2.374,23.6-3.324,27.76-25.752l16.3-105.386c4.164-22.429,3.9-23.22-17.606-25.6l-17.23-7.388h88.612c20.283,0,29.969,2.374,39.3,8.971,10.118,6.86,15.416,18.734,12.427,34.83-4.213,22.692-22.14,36.941-44.268,45.384,3.482,8.18,12.147,25.858,18.277,37.732,7.685,13.985,11.739,20.581,16.9,27.178,6.081,7.652,18.907,10.555,25.005,12.138ZM1517.727,221.8c14.448,0,24.009-2.111,31.983-7.652,12.257-7.652,18.662-18.207,21.307-32.456,5.242-28.233-12.574-38.523-33.968-38.523-8.057,0-12.977,1.055-15.215,2.639-2.844,1.846-6.816,4.485-8.09,11.346l-9.355,64.646Z" fill="#a5a5a8"/>
      </g>
      <g id="Сгруппировать_82" data-name="Сгруппировать 82">
        <path id="Контур_235" data-name="Контур 235" d="M1667.752,302.555c-3.612,0-75.043-.264-78.606-.528-20.037-1.319-29.942-6.332-39.131-22.693-7.781-13.456-14.7-30.079-21.089-43.537-3.989-8.443-7.307-10.026-21.477-10.026h-9.725l-5.043,41.427c-4.165,22.427-4,23.747,17.834,25.857l-1.372,7.389h-70.7l1.372-7.389c23.5-2.374,23.6-3.324,27.76-25.752l16.3-105.386c4.164-22.429,3.9-23.22-17.606-25.6l-17.23-7.388h88.612c20.283,0,29.969,2.374,39.3,8.971,10.118,6.86,15.416,18.734,12.427,34.83-4.213,22.692-22.14,36.941-44.268,45.384,3.482,8.18,12.147,25.858,18.277,37.732,7.685,13.985,11.739,20.581,16.9,27.178,6.081,7.652,18.907,10.555,25.005,12.138ZM1512.727,216.8c14.448,0,24.009-2.111,31.983-7.652,12.257-7.652,18.662-18.207,21.307-32.456,5.242-28.233-12.574-38.523-33.968-38.523-8.057,0-12.977,1.055-15.215,2.639-2.844,1.846-6.816,4.485-8.09,11.346l-9.355,64.646Z" fill="#010742"/>
      </g>
    </g>
    <g id="Сгруппировать_86" data-name="Сгруппировать 86">
      <g id="Сгруппировать_84" data-name="Сгруппировать 84">
        <path id="Контур_236" data-name="Контур 236" d="M1675.989,317.757c-4.051,7.254-7.419,17.857-10.606,23.809h-71.241l-.649-2.977c16.308-27.223,44.366-48.176,65.715-72.172h-19.77c-14.472,0-17.313,2.046-28.353,18.043l-5.384-1.674A285.459,285.459,0,0,0,1617.2,256h4.484c.683,2.791,3.117,3.907,10.658,3.907h53.617l-4.83,5.306c-20.415,22.322-52.022,46.153-64.936,69.842H1638c15.49,0,20.9-1.2,33.087-16.828Z" fill="#a5a5a8"/>
      </g>
      <g id="Сгруппировать_85" data-name="Сгруппировать 85">
        <path id="Контур_237" data-name="Контур 237" d="M1670.989,312.757c-4.051,7.254-7.419,17.857-10.606,23.809h-71.241l-.649-2.977c16.308-27.223,44.366-48.176,65.715-72.172h-19.77c-14.472,0-17.313,2.046-28.353,18.043l-5.384-1.674A285.459,285.459,0,0,0,1612.2,251h4.484c.683,2.791,3.117,3.907,10.658,3.907h53.617l-4.83,5.306c-20.415,22.322-52.022,46.153-64.936,69.842H1633c15.49,0,20.9-1.2,33.087-16.828Z" fill="#010742"/>
      </g>
    </g>
    <g id="Сгруппировать_89" data-name="Сгруппировать 89">
      <g id="Сгруппировать_87" data-name="Сгруппировать 87">
        <path id="Контур_238" data-name="Контур 238" d="M1422.951,115.14l0,0h0Z" fill="#a5a5a8"/>
        <path id="Контур_239" data-name="Контур 239" d="M1723.366,172.136A182.235,182.235,0,0,0,1552.949,60.53c-24.7.322-50.868,5.676-71.8,14.689a184.058,184.058,0,0,0-58.2,39.918,182.094,182.094,0,0,0,0,255.164c15.333,15.576,36.862,29.748,60.616,39.907a182.984,182.984,0,0,0,69.378,14.684q1.1.012,2.2.013a182.1,182.1,0,0,0,168.214-111.6,182.525,182.525,0,0,0,.007-141.17Zm-333.556,3.01A174.412,174.412,0,0,1,1550.782,68.373c.722,0,1.446,0,2.166.014A174.39,174.39,0,1,1,1389.808,310.3h0a174.638,174.638,0,0,1,0-135.152Z" fill="#a5a5a8"/>
      </g>
      <g id="Сгруппировать_88" data-name="Сгруппировать 88">
        <path id="Контур_240" data-name="Контур 240" d="M1417.951,110.14l0,0h0Z" fill="#010742"/>
        <path id="Контур_241" data-name="Контур 241" d="M1718.366,167.136A182.235,182.235,0,0,0,1547.949,55.53c-24.7.322-50.868,5.676-71.8,14.689a184.058,184.058,0,0,0-58.2,39.918,182.094,182.094,0,0,0,0,255.164c15.333,15.576,36.862,29.748,60.616,39.907a182.984,182.984,0,0,0,69.378,14.684q1.1.012,2.2.013a182.1,182.1,0,0,0,168.214-111.6,182.525,182.525,0,0,0,.007-141.17Zm-333.556,3.01A174.412,174.412,0,0,1,1545.782,63.373c.722,0,1.446,0,2.166.014A174.39,174.39,0,1,1,1384.808,305.3h0a174.638,174.638,0,0,1,0-135.152Z" fill="#010742"/>
      </g>
    </g>
  </g>
</svg>
