<svg width="65" height="63" viewBox="0 0 65 63" fill="none" xmlns="http://www.w3.org/2000/svg">
<path fill-rule="evenodd" clip-rule="evenodd" d="M15.9494 39.5184C16.5898 39.7542 34.2528 53.6344 34.7585 54.005C39.5787 57.7782 38.2978 57.4077 43.8259 57.4077C45.2079 57.4077 46.59 57.4077 47.972 57.4077C50.5001 57.4077 50.8035 57.0034 52.4889 55.6558C53.0282 55.1841 53.163 55.42 53.972 55.5884C55.017 55.8579 56.2979 56.1274 57.2754 56.4306C58.3204 56.7675 58.8934 58.0478 58.2192 59.2269C57.6125 60.3724 56.4664 60.1365 54.9496 60.1365H38.2978C36.9832 60.1365 36.9495 59.867 35.5337 58.7216L21.5112 47.8397C20.9719 47.4355 14.7359 42.6852 14.5674 42.2809C14.1629 41.3376 15.7134 39.6868 15.9494 39.5184ZM17.6348 37.2611C17.7359 36.8232 21.2415 32.2077 21.4775 32.0055C22.8595 33.3868 24.2416 36.1157 24.2416 38.6087C24.2416 39.5184 24.0393 41.2028 23.5674 41.8093C23.2977 41.7082 18.1067 37.6991 17.6348 37.2611ZM40.927 38.474C39.6461 38.5077 38.5338 38.3055 37.4888 38.0023C36.3764 37.6654 35.1967 37.9012 35.2641 39.2151C35.3315 40.3943 36.545 40.5964 37.5562 40.8323C38.6686 41.0681 39.7135 41.1692 40.927 41.2365V43.9317C39.6798 43.9654 38.9045 43.797 37.8596 43.5274C36.7809 43.2916 35.8708 42.9884 35.3989 43.9991C34.4214 46.0879 37.927 46.3574 39.4102 46.5595C39.3765 46.9975 38.6349 47.5028 38.5 48.0756C38.3315 48.9178 38.8034 49.5579 39.3765 49.6927C40.8933 50.1306 41.3652 48.2777 42.1742 47.6713C43.0843 48.3451 47.2978 52.3879 48.6799 53.6007C48.9495 53.8702 49.354 54.1061 49.6237 54.4093C49.1181 54.9483 46.4551 54.6788 45.4776 54.6788C44.0282 54.6788 42.5787 54.6788 41.1293 54.6788C39.6798 54.7125 39.6461 54.3756 38.163 53.2301C37.0169 52.3205 26.1629 43.9654 25.8595 43.5948C25.9607 43.1232 26.3315 42.4157 26.5 41.8429C27.9494 37.0927 26.0955 33.1847 23.0955 29.7146L25.3539 26.6825C25.691 26.2109 26.1629 26.3456 26.7697 26.3793C27.1067 26.7836 27.6461 27.7943 27.9831 28.2659C30.9832 32.8141 34.8933 37.0253 40.927 36.8905V38.474ZM32.1292 22.2692C34.3203 19.9782 34.3877 20.2815 36.0057 17.6873C39.309 12.398 42.4776 7.51301 45.9158 2.35846C47.1293 0.5729 44.9046 -0.673624 43.8933 0.53921C42.9832 1.58359 35.5674 13.2403 34.9944 14.1836C32.1966 18.698 33.5787 16.7777 30.073 20.4836C26.0281 24.7959 27.6461 23.3809 24.8146 23.6504C23.9719 23.7515 23.7022 24.3242 23.264 24.9307C19.9606 29.4114 16.9269 33.4879 13.691 37.9012C12.8145 39.0804 11.837 39.99 11.8707 41.7082C11.9044 43.5611 12.7471 44.5044 13.8932 45.3804C20.1292 50.097 26.8034 55.4536 32.8708 60.1365C36.6124 63.0002 35.7023 62.8654 41.4326 62.8654C45.1742 62.8654 48.9158 62.8654 52.6574 62.8654C54.208 62.8654 56.8709 63.0675 58.1518 62.5622C61.4215 61.3157 62.0619 57.6772 60.208 55.3526C59.3653 54.2745 58.2866 53.8365 56.5001 53.4323C55.0507 53.129 53.5338 52.6574 52.0844 52.3205C50.972 52.051 50.8372 51.8825 50.2304 51.3435L45.8147 47.3007C43.8259 45.5488 43.6574 45.6499 43.6911 43.797C43.7248 40.0237 43.6574 36.3515 43.8596 32.5782C43.927 31.0285 43.7922 31.4328 44.6012 30.5232C51.3091 23.0103 57.6125 15.8007 63.8148 7.58039C64.1855 7.10873 64.826 6.30017 64.9271 5.8622C65.062 4.98627 64.4552 4.31247 63.6799 4.27878C62.7698 4.2114 62.4664 4.81782 61.9945 5.45793C58.5563 10.1071 54.1069 15.5986 50.7361 19.4392L42.8147 28.4344C41.2304 30.22 41.3989 29.3777 41.1293 32.3761C41.0956 32.7804 41.0956 33.3868 41.0619 33.7237C40.9607 34.2964 40.6911 34.1954 40.0843 34.1954C39.1068 34.1617 38.4663 34.0269 37.6573 33.7574C36.3764 33.2857 35.2978 32.4772 34.2191 31.5676C33.0056 30.4895 29.6011 26.4467 29.3652 25.2002L32.1292 22.2692Z" fill="#009EC1" stroke="#009EC1" stroke-width="0.0761946"/>
<path fill-rule="evenodd" clip-rule="evenodd" d="M8.29767 61.8889C8.70217 63.3375 11.3314 62.8659 12.8483 62.8659C14.2977 62.8659 25.7921 62.9332 26.3314 62.7985C26.9719 62.63 27.5112 61.9225 27.2753 61.0803C26.8708 59.6653 24.2416 60.137 22.7247 60.137H11.9044C11.3314 60.137 9.71341 60.0696 9.2752 60.1707C8.63475 60.3391 8.09542 61.0466 8.29767 61.8889Z" fill="#009EC1" stroke="#009EC1" stroke-width="0.0761946"/>
<path fill-rule="evenodd" clip-rule="evenodd" d="M0.106625 50.9731C0.409997 52.2196 1.96057 51.9838 3.17405 51.9838H11.3988C12.3089 51.9838 14.028 51.9501 13.6572 50.2656C13.3876 49.0191 11.9044 49.2549 10.5561 49.2549L2.33135 49.2212C1.11787 49.2212 -0.230455 49.457 0.106625 50.9731Z" fill="#009EC1" stroke="#009EC1" stroke-width="0.0761946"/>
<path fill-rule="evenodd" clip-rule="evenodd" d="M2.83695 56.2621C3.00549 57.4413 3.98303 57.4076 5.16281 57.4076C6.27517 57.4076 7.35383 57.4076 8.46619 57.4076C9.61226 57.4076 10.7583 57.4076 11.9044 57.4076C12.9831 57.4076 13.8258 57.037 13.6909 55.8579C13.5561 54.6787 12.5449 54.6787 11.3988 54.6787H4.62348C3.54482 54.6787 2.66841 55.083 2.83695 56.2621Z" fill="#009EC1" stroke="#009EC1" stroke-width="0.0761946"/>
<path fill-rule="evenodd" clip-rule="evenodd" d="M2.83701 45.3462C3.03926 46.7612 4.45499 46.5254 5.7696 46.5254C6.44376 46.5254 7.18534 46.6264 7.65725 46.2895C7.99433 46.0537 8.33141 45.6157 8.26399 44.9756C8.06175 43.5944 6.6123 43.7965 5.36511 43.7965C4.0842 43.7965 2.63476 43.7965 2.83701 45.3462Z" fill="#009EC1" stroke="#009EC1" stroke-width="0.0761946"/>
<path fill-rule="evenodd" clip-rule="evenodd" d="M2.87066 61.8885C3.24145 63.3708 6.07292 63.1013 5.66843 61.181C5.33135 59.5639 2.39875 59.8671 2.87066 61.8885Z" fill="#009EC1" stroke="#009EC1" stroke-width="0.0761946"/>
<path fill-rule="evenodd" clip-rule="evenodd" d="M19.1516 56.5654C19.9269 54.8135 17.1628 53.9713 16.5561 55.521C15.8482 57.2392 18.3763 58.2499 19.1516 56.5654Z" fill="#009EC1" stroke="#009EC1" stroke-width="0.0761946"/>
</svg>
