<svg width="63" height="63" viewBox="0 0 63 63" fill="none" xmlns="http://www.w3.org/2000/svg">
<path fill-rule="evenodd" clip-rule="evenodd" d="M51.0422 58.215C50.7017 57.6905 50.3519 56.9359 50.039 56.3745L39.1052 36.396C38.3873 35.1168 37.5406 34.169 35.9944 33.9021C32.8836 33.3592 31.8344 34.9052 30.1317 36.4236C29.6163 36.8745 29.193 37.307 28.7052 37.7487C27.7204 38.6322 26.7172 39.5524 25.7969 40.4543C23.8089 42.4052 21.9222 43.9604 19.9802 45.8561C16.2252 49.5187 15.6914 48.7089 17.3756 52.6015C17.9094 53.853 18.48 55.1782 19.0507 56.5309C19.2899 57.0831 19.8882 58.0217 19.5569 58.6291C19.0138 59.6046 18.3696 58.7855 18.0015 58.2794C16.4645 56.1168 14.8262 53.853 13.2892 51.7733C12.8014 51.1199 13.0407 51.5064 12.9119 50.6966C12.8475 50.3009 12.5622 50.0708 12.3321 49.8776C10.8871 48.6352 6.31294 45.4604 4.30657 43.9144C3.53347 43.3162 4.1317 42.3868 4.99683 42.5432L10.8595 45.0371C13.731 46.2794 13.7678 46.2426 16.2804 43.4451C18.3972 41.0892 20.965 38.4941 22.999 36.1843C23.8917 35.1813 24.8121 34.2426 25.6956 33.2671C26.6068 32.2641 27.5731 31.353 28.3923 30.35C30.1225 28.2518 29.7544 24.6721 26.5147 23.0892C25.2539 22.4727 24.039 21.8377 22.7781 21.2211C17.6885 18.7089 12.7738 16.1598 7.73949 13.7027C7.10445 13.399 6.47861 13.0586 5.83436 12.7549C4.42621 12.0923 5.14409 11.3745 5.52144 11.3285C5.79754 11.2825 30.1685 16.6659 33.1873 17.3193C34.485 17.5954 36.6202 18.2303 37.9087 18.1659C40.5225 18.0463 41.5073 16.3898 43.0167 14.8438L52.4964 4.73033C53.4443 3.8653 55.5704 3.72726 57.0521 4.18739C58.0737 4.50947 58.2578 4.56469 58.6259 5.45733C58.9112 6.17512 59.0585 6.94812 59.0677 7.75794C59.0953 9.99414 58.2118 10.5371 57.1994 11.5033C55.239 13.3806 53.4351 15.1567 51.4748 16.9972C50.5084 17.9082 49.5512 18.8377 48.5941 19.7303L45.7594 22.5095C44.8482 23.7794 44.6181 25.1966 45.0415 26.9267C45.4096 28.4359 45.7133 29.9727 46.0723 31.5095C48.0234 39.8377 49.8273 48.35 51.7509 56.7242C51.9442 57.5616 52.3583 58.4727 51.0422 58.215ZM33.7395 38.6506C34.7335 37.7763 35.074 37.2978 35.6355 38.4021L45.9987 57.7549C46.4036 58.5187 47.0203 59.853 47.5909 60.5892C49.0542 62.4941 52.1098 62.7886 53.9781 61.4451C56.6104 59.5401 55.8004 57.4052 55.2206 55.0125C54.6592 52.6291 54.1346 50.2273 53.5916 47.7794C52.5608 43.0586 51.3919 38.1997 50.3611 33.4328C49.8365 31.0033 49.2475 28.5831 48.7321 26.1721C48.5204 25.1782 48.4376 25.0309 49.0726 24.442C51.5024 22.215 54.4567 19.2426 56.9693 16.8868L61.479 12.6352C62.9332 11.0984 63.3105 8.14444 62.7583 5.57696C62.5006 4.37144 62.0589 3.30395 61.3594 2.52174C60.7612 1.84076 60.0065 1.10457 58.8192 0.653645C56.4907 -0.220588 53.5456 -0.248195 51.3827 0.754872C50.0114 1.38984 47.9406 3.82849 46.8454 4.988L40.3569 11.7886C37.605 14.7242 38.599 14.3745 34.5218 13.5279L8.98197 8.15365C5.99082 7.51868 4.21453 6.80088 2.3094 8.99107C0.698774 10.8408 1.00249 13.7947 2.70515 15.2947C3.51506 16.0125 4.49984 16.4451 5.47542 16.9604C6.54303 17.5217 7.36215 17.9635 8.36533 18.4972L22.8425 26.1721C24.5268 27.0647 25.2262 27.1291 25.1894 28.1598L12.599 41.9451C12.1388 41.8438 9.70905 40.7303 9.0556 40.4451C8.11684 40.0401 6.52462 39.2395 5.56745 39.0371C2.75117 38.4573 0.192579 40.5187 0.00850786 43.2058C-0.101935 44.8622 0.579128 46.1046 1.36143 46.8592L4.16851 48.9757C11.4025 54.3224 9.25808 52.0862 14.0899 58.8316C14.679 59.6506 15.6361 61.1322 16.1791 61.6751C19.428 64.9052 24.8489 61.7487 23.9285 57.3592C23.588 55.7671 21.2963 51.6076 21.0478 50.3929L33.7395 38.6506Z" fill="#009EC1"/>
</svg>
