<?xml version="1.0" standalone="no"?>
<!DOCTYPE svg PUBLIC "-//W3C//DTD SVG 20010904//EN"
 "http://www.w3.org/TR/2001/REC-SVG-20010904/DTD/svg10.dtd">
<svg version="1.0" xmlns="http://www.w3.org/2000/svg"
 width="744.000000pt" height="744.000000pt" viewBox="0 0 744.000000 744.000000"
 preserveAspectRatio="xMidYMid meet">
<metadata>
Created by potrace 1.11, written by Peter Selinger 2001-2013
</metadata>
<g transform="translate(0.000000,744.000000) scale(0.100000,-0.100000)"
fill="#000000" stroke="none">
<path d="M3458 7405 c-2 -2 -46 -7 -98 -10 -51 -3 -96 -8 -100 -10 -3 -2 -35
-6 -70 -9 -36 -3 -76 -8 -90 -11 -14 -3 -41 -8 -60 -11 -138 -23 -351 -72
-485 -113 -92 -28 -88 -27 -107 -35 -9 -4 -22 -9 -30 -10 -16 -3 -167 -61
-228 -88 -194 -88 -433 -218 -565 -310 -112 -77 -235 -167 -245 -178 -3 -3
-18 -16 -35 -29 -108 -83 -362 -329 -460 -446 -27 -33 -54 -65 -60 -71 -17
-19 -68 -84 -107 -138 -21 -28 -41 -55 -46 -61 -26 -32 -149 -227 -204 -325
-57 -101 -168 -322 -168 -335 0 -3 -9 -24 -20 -48 -25 -55 -77 -195 -101 -277
-11 -36 -23 -72 -26 -80 -3 -8 -7 -19 -9 -25 -7 -26 -56 -222 -60 -240 -17
-74 -26 -126 -31 -165 -3 -25 -9 -52 -14 -61 -4 -9 -6 -19 -3 -21 3 -3 0 -34
-5 -69 -6 -35 -14 -100 -18 -144 -9 -91 -9 -562 0 -645 12 -108 18 -155 22
-180 3 -14 7 -45 10 -70 3 -25 8 -52 10 -60 3 -8 7 -33 10 -55 3 -22 10 -53
15 -70 5 -16 11 -43 14 -60 4 -29 21 -93 52 -205 17 -59 71 -219 87 -260 6
-14 11 -27 12 -30 12 -36 68 -165 106 -245 24 -49 42 -93 41 -97 -1 -5 3 -8 8
-8 6 0 10 -5 10 -11 0 -17 116 -215 203 -344 154 -230 273 -373 502 -600 94
-93 182 -179 195 -190 14 -11 59 -47 100 -80 41 -33 77 -62 80 -65 3 -3 19
-14 35 -26 307 -213 502 -323 825 -467 138 -61 482 -175 615 -203 11 -2 52
-11 90 -19 39 -9 84 -18 100 -20 17 -2 41 -6 55 -8 14 -2 48 -7 75 -11 28 -4
64 -9 80 -11 181 -26 736 -26 859 0 19 4 44 7 141 20 17 2 39 6 50 8 11 3 40
8 65 12 50 8 51 8 136 29 34 8 72 17 85 20 13 2 35 9 49 14 14 5 27 10 30 10
9 0 95 23 110 29 8 4 17 7 20 8 20 5 128 43 190 67 369 142 700 336 1019 595
103 84 376 352 456 448 43 52 222 289 242 321 7 10 41 64 75 119 35 55 70 113
78 130 8 16 17 32 20 35 6 5 109 215 148 300 49 110 133 346 166 470 8 30 22
80 30 110 8 30 17 69 20 85 3 17 14 77 26 133 11 57 23 127 25 156 3 29 8 63
10 76 19 99 27 544 13 715 -12 134 -17 189 -23 215 -2 13 -7 42 -10 65 -11 71
-16 100 -21 118 -3 11 -7 29 -9 40 -1 12 -12 63 -24 112 -12 50 -24 101 -27
114 -7 35 -109 342 -126 382 -8 19 -35 79 -59 134 -65 149 -194 397 -211 403
-4 2 -8 8 -8 13 0 21 -199 310 -279 405 -14 17 -46 55 -71 85 -62 75 -401 414
-480 480 -35 30 -71 60 -78 67 -35 32 -185 142 -286 209 -61 40 -116 78 -123
83 -7 6 -14 10 -17 10 -2 0 -42 22 -88 48 -138 79 -442 222 -468 219 -3 0 -16
6 -30 13 -14 8 -27 15 -30 15 -3 1 -68 22 -145 47 -77 25 -172 53 -210 62 -39
9 -83 20 -100 25 -27 8 -104 24 -130 26 -5 1 -23 4 -40 8 -37 8 -76 15 -134
22 -23 3 -55 7 -70 10 -84 15 -661 32 -673 20z m432 -259 c138 -7 231 -15 265
-22 17 -4 48 -8 70 -10 22 -1 40 -4 40 -5 0 -1 9 -3 20 -4 29 -4 75 -13 158
-31 39 -9 86 -18 102 -21 17 -3 38 -9 48 -14 9 -5 17 -7 17 -4 0 3 16 -2 36
-10 20 -8 46 -15 59 -15 12 0 24 -3 28 -6 3 -3 57 -23 121 -44 63 -22 134 -48
158 -58 24 -11 77 -34 118 -52 85 -37 245 -118 305 -155 22 -14 49 -29 60 -35
11 -6 34 -19 50 -30 17 -11 40 -25 53 -31 12 -7 22 -16 22 -21 0 -4 5 -8 10
-8 9 0 65 -35 80 -50 17 -18 80 -60 89 -60 6 0 11 -4 11 -8 0 -5 19 -23 43
-40 92 -68 264 -226 342 -316 33 -38 67 -76 75 -85 9 -9 36 -43 60 -76 25 -33
48 -62 51 -65 10 -8 127 -180 177 -260 51 -80 59 -95 61 -105 1 -5 8 -17 15
-25 18 -20 129 -241 172 -342 74 -171 182 -508 210 -651 2 -12 6 -33 9 -47 3
-14 7 -38 10 -55 2 -16 11 -73 19 -125 14 -94 23 -170 31 -266 11 -129 5 -463
-10 -574 -3 -25 -7 -65 -10 -90 -2 -25 -6 -54 -8 -65 -3 -11 -8 -42 -11 -69
-29 -216 -140 -585 -246 -822 -48 -106 -145 -293 -196 -379 -30 -49 -57 -97
-61 -105 -4 -8 -10 -17 -13 -20 -4 -3 -20 -25 -35 -50 -161 -259 -524 -648
-780 -835 -22 -16 -42 -32 -45 -35 -11 -13 -221 -150 -304 -199 -135 -79 -306
-162 -463 -225 -78 -31 -150 -59 -160 -61 -10 -2 -45 -13 -78 -25 -53 -18
-188 -55 -238 -66 -10 -2 -27 -6 -37 -9 -10 -3 -29 -8 -42 -10 -13 -3 -45 -9
-73 -15 -46 -9 -66 -12 -142 -24 -16 -3 -55 -8 -88 -12 -33 -3 -69 -8 -79 -10
-45 -8 -261 -18 -386 -17 -178 1 -364 15 -515 39 -16 3 -45 7 -62 10 -18 2
-52 8 -75 13 -24 6 -56 12 -73 15 -16 3 -57 13 -90 22 -33 8 -67 17 -75 19
-94 23 -280 83 -362 118 -21 9 -38 13 -38 10 0 -3 -6 -1 -13 5 -6 6 -35 19
-62 30 -87 34 -246 114 -359 179 -60 35 -112 63 -116 63 -5 0 -10 3 -12 8 -1
4 -43 34 -93 67 -49 33 -92 62 -95 65 -3 3 -21 17 -40 30 -19 12 -39 28 -45
35 -5 6 -20 18 -32 26 -76 53 -299 266 -373 357 -19 24 -40 49 -46 55 -22 26
-112 146 -154 207 -25 36 -48 67 -51 70 -3 3 -23 34 -45 70 -21 36 -43 72 -49
81 -71 118 -245 469 -245 495 0 3 -7 20 -15 37 -15 34 -111 322 -119 359 -3
13 -10 41 -15 63 -5 22 -12 51 -14 65 -3 14 -9 43 -15 65 -6 22 -13 58 -16 80
-3 22 -7 49 -10 60 -8 42 -21 142 -33 255 -16 152 -7 662 13 752 3 13 7 39 9
58 2 30 24 155 39 225 27 130 29 138 83 310 20 66 37 122 38 125 2 14 59 156
65 165 5 6 10 19 12 30 5 29 141 304 199 404 224 381 505 704 852 981 49 39
101 78 115 88 15 9 46 31 69 49 39 28 294 185 318 194 6 2 48 24 95 49 47 24
87 45 90 45 3 1 28 12 55 24 59 27 246 102 260 105 6 1 53 16 105 34 87 28
255 73 320 86 14 2 50 10 80 16 30 6 69 13 85 15 17 3 41 7 55 10 25 5 86 12
185 21 28 3 100 8 160 11 61 2 111 6 112 6 2 3 140 -2 253 -7z m-2115 -416
c-3 -5 -12 -10 -18 -10 -7 0 -6 4 3 10 19 12 23 12 15 0z m-41 -24 c-3 -8 -13
-16 -22 -19 -16 -4 -211 -146 -240 -174 -7 -7 -34 -29 -60 -50 -138 -111 -376
-350 -477 -478 -16 -21 -35 -43 -40 -49 -6 -6 -34 -42 -63 -81 -28 -38 -55
-74 -60 -80 -19 -25 -149 -223 -166 -255 -10 -19 -35 -64 -56 -100 -51 -88
-133 -261 -182 -384 -53 -133 -108 -286 -102 -286 2 0 -3 -17 -12 -37 -8 -21
-17 -47 -20 -58 -2 -11 -7 -33 -11 -50 -4 -16 -7 -32 -8 -35 -22 -96 -30 -122
-36 -125 -4 -3 -1 17 6 45 7 27 11 50 9 50 -2 0 1 11 6 26 6 14 12 39 15 57 4
17 13 54 22 82 37 121 76 241 82 250 3 6 6 12 6 15 0 5 21 61 35 95 5 11 19
45 32 75 76 186 252 501 360 645 68 89 154 202 163 211 5 6 35 40 65 75 66 76
229 239 306 306 31 26 64 55 74 63 10 8 32 26 50 40 18 14 38 30 44 35 29 28
136 105 144 105 6 0 12 4 14 8 2 7 116 89 125 91 1 1 0 -5 -3 -13z m-1564
-2323 c-11 -17 -11 -17 -6 0 3 10 7 26 7 35 1 15 2 15 6 0 2 -10 -1 -25 -7
-35z"/>
<path d="M1691 5934 c5 -6 47 -26 94 -44 89 -34 104 -47 58 -48 -16 0 -37 -1
-48 -2 -22 -2 -22 -1 70 -41 61 -26 186 -80 220 -94 17 -8 54 -16 83 -19 129
-14 158 -19 174 -27 9 -5 26 -9 37 -9 22 0 23 -5 24 -75 0 -44 -13 -166 -18
-175 -2 -3 -6 -24 -9 -46 -4 -22 -9 -51 -11 -64 -3 -14 -8 -45 -11 -70 -3 -25
-8 -54 -10 -65 -3 -11 -7 -38 -10 -60 -3 -22 -8 -51 -10 -65 -2 -14 -7 -43
-10 -65 -3 -22 -9 -62 -14 -90 -5 -27 -12 -70 -15 -95 -7 -55 -14 -97 -20
-130 -3 -14 -7 -47 -11 -75 -3 -27 -8 -59 -10 -70 -5 -25 -12 -68 -19 -117 -8
-61 -15 -101 -20 -128 -3 -14 -8 -45 -11 -70 -7 -51 -10 -74 -18 -110 -2 -14
-7 -43 -10 -65 -7 -52 -16 -114 -22 -145 -5 -26 -9 -55 -19 -125 -3 -22 -7
-49 -9 -60 -2 -11 -7 -42 -10 -68 -4 -27 -9 -56 -11 -65 -1 -10 -6 -37 -9 -62
-3 -25 -8 -56 -11 -70 -4 -23 -9 -54 -21 -140 -3 -19 -7 -42 -9 -50 -2 -8 -7
-35 -10 -60 -4 -25 -13 -76 -22 -115 -8 -38 -16 -77 -17 -85 -7 -62 -61 -182
-91 -202 -5 -3 -20 -15 -33 -26 -31 -27 -138 -56 -250 -68 -29 -3 -61 -7 -70
-9 -9 -2 -29 -4 -43 -4 -24 -1 -27 -6 -41 -76 l-15 -75 58 0 c64 0 64 0 50
-62 l-9 -38 709 0 c390 0 709 3 710 8 0 4 3 16 5 27 2 11 7 41 10 68 6 46 6
47 -22 49 -16 0 -33 2 -39 3 -5 2 -18 3 -27 4 -16 1 -17 28 -3 68 6 17 -4 22
-66 28 -91 10 -102 12 -161 24 -65 14 -68 17 -70 63 -1 36 12 180 17 188 2 3
6 24 9 46 4 22 8 51 11 64 3 14 7 45 10 70 10 86 15 122 19 149 3 14 8 60 11
101 3 41 8 82 10 90 5 19 16 104 20 150 1 19 5 53 9 75 3 22 8 65 11 95 7 67
14 111 20 120 2 4 71 6 154 4 277 -4 330 -17 361 -88 10 -23 34 -77 55 -121
35 -74 50 -109 110 -240 57 -124 116 -251 125 -265 4 -8 23 -44 41 -80 45 -90
115 -214 162 -283 41 -62 216 -244 282 -294 84 -64 237 -121 365 -138 99 -12
194 -18 315 -20 77 -2 141 -3 143 -4 1 -1 -13 -18 -32 -38 -54 -60 -75 -83
-135 -158 -31 -38 -59 -72 -62 -75 -3 -3 -42 -57 -85 -120 -63 -91 -79 -123
-80 -152 0 -21 4 -38 10 -39 6 0 33 -1 59 -1 40 0 46 -2 37 -13 -7 -9 -9 -29
-5 -52 l6 -38 711 1 c684 1 711 2 722 20 6 11 45 100 87 199 41 99 83 195 93
213 16 31 14 58 -4 47 -5 -3 -23 -7 -41 -9 -20 -2 -40 -13 -51 -29 -10 -14
-34 -42 -53 -64 l-35 -38 16 40 c8 22 31 72 50 111 19 39 34 75 34 79 0 4 -20
5 -45 2 -38 -4 -51 -11 -77 -43 -74 -91 -205 -210 -260 -237 -49 -23 -162 -53
-208 -55 -108 -4 -422 -3 -426 1 -14 14 151 223 302 383 l61 65 269 -1 c329
-1 328 -1 323 5 -6 5 -52 13 -119 20 -87 9 -135 15 -175 20 -22 3 -62 8 -90
11 -27 3 -59 7 -70 9 -11 2 -30 4 -43 4 -21 1 -22 2 -8 17 13 13 45 15 216 12
110 -2 200 0 200 5 0 4 -8 7 -17 8 -10 0 -27 2 -38 4 -11 2 -42 6 -70 9 -27 3
-84 9 -125 15 -41 5 -77 9 -80 9 -28 -2 -18 8 225 237 263 247 525 514 525
534 0 6 7 11 16 11 9 0 14 5 12 12 -3 8 -32 12 -91 11 -97 -1 -94 -5 -34 61
15 17 27 33 27 36 0 3 -269 5 -598 5 -551 0 -599 1 -629 18 -18 9 -37 26 -43
37 -8 15 -21 20 -54 20 -43 0 -44 0 -65 -52 -11 -29 -26 -66 -32 -83 -7 -16
-13 -32 -14 -35 -4 -11 -26 -63 -46 -108 -12 -26 -28 -63 -36 -82 -9 -19 -30
-65 -48 -102 -39 -80 -37 -82 66 -103 10 -2 24 11 38 36 12 21 24 39 26 39 6
0 -5 -27 -37 -90 l-27 -55 51 -18 c29 -9 55 -14 59 -10 4 5 41 54 83 110 161
215 222 243 530 243 l159 0 -215 -212 c-359 -354 -407 -400 -416 -394 -5 3
-38 8 -73 11 -114 10 -163 16 -189 22 -14 3 -31 7 -38 9 -21 4 -155 44 -177
53 -11 4 -58 26 -105 49 -68 33 -93 51 -121 89 -50 68 -159 240 -159 253 0 5
-4 10 -10 10 -5 0 -10 4 -10 9 0 5 -26 54 -57 108 -79 136 -429 851 -421 858
2 2 41 19 88 40 47 20 99 45 116 56 17 10 34 16 37 12 4 -3 7 -1 7 5 0 7 5 12
10 12 6 0 50 25 98 56 297 192 459 415 528 729 3 17 8 85 9 153 3 99 0 137
-16 194 -37 134 -73 192 -193 313 -61 61 -131 125 -156 142 -45 30 -143 83
-157 84 -5 0 -13 5 -19 9 -9 8 -67 26 -149 46 -11 3 -36 7 -55 9 -19 2 -35 4
-35 5 0 1 -11 3 -25 5 -144 21 -2106 29 -2089 9z m1909 -289 c14 -3 36 -8 50
-11 39 -7 164 -47 170 -54 3 -3 19 -12 36 -18 16 -7 43 -25 58 -39 32 -30 85
-136 92 -185 3 -18 9 -46 13 -63 10 -41 6 -186 -8 -265 -28 -157 -85 -308
-153 -408 -138 -205 -385 -362 -623 -397 -22 -3 -48 -8 -57 -11 -9 -3 -101 -7
-203 -8 l-186 -4 6 42 c3 22 8 59 11 81 2 22 7 51 9 65 3 14 7 45 10 70 3 25
12 88 20 140 8 52 17 113 20 135 3 22 8 50 10 62 3 12 7 44 10 70 3 27 7 59
10 73 3 14 8 45 11 70 3 25 7 59 10 75 14 83 30 195 39 270 9 77 36 144 79
192 91 103 185 131 421 126 66 -1 131 -5 145 -8z"/>
<path d="M6050 2371 c0 -5 9 -7 20 -4 11 3 20 7 20 9 0 2 -9 4 -20 4 -11 0
-20 -4 -20 -9z"/>
</g>
</svg>
